<svg id="svg" xmlns="http://www.w3.org/2000/svg" width="400" height="400" viewBox="0, 0, 400,400"><path d="M330.859 25.836 C 288.121 38.378,291.015 37.564,291.863 36.809 C 292.256 36.460,298.730 32.019,306.250 26.942 C 322.192 16.177,320.671 17.285,320.183 16.798 C 318.393 15.008,273.490 30.555,247.531 41.952 L 240.765 44.922 219.130 67.578 C 207.231 80.039,195.930 91.816,194.018 93.750 L 190.540 97.266 194.764 88.281 C 197.087 83.340,200.871 75.532,203.172 70.930 C 205.473 66.329,207.148 62.356,206.894 62.102 C 205.379 60.588,168.311 85.528,153.980 97.703 L 150.539 100.627 144.909 123.382 C 141.813 135.897,139.111 146.306,138.903 146.513 C 138.696 146.720,138.064 139.490,137.499 130.445 C 136.933 121.401,136.225 113.849,135.924 113.664 C 135.007 113.097,107.841 141.172,99.170 151.648 C 78.749 176.318,63.630 201.692,55.835 224.374 L 52.963 232.732 42.427 225.680 C 36.633 221.802,31.705 218.816,31.477 219.044 C 30.260 220.261,42.235 253.144,46.971 261.590 C 50.646 268.146,50.331 268.219,36.719 263.964 C 30.059 261.883,24.142 260.262,23.572 260.363 C 20.382 260.928,40.985 286.948,50.707 294.634 C 58.199 300.557,58.008 298.701,52.796 314.862 C 45.645 337.038,35.716 379.068,37.285 380.522 C 38.493 381.640,51.681 383.421,51.980 382.506 C 52.136 382.030,52.835 378.477,53.534 374.609 C 57.540 352.425,68.663 312.896,78.375 286.328 C 112.940 191.768,174.109 121.968,260.156 78.898 C 271.970 72.985,290.035 64.844,291.342 64.844 C 291.948 64.844,297.111 76.606,296.679 77.003 C 296.572 77.101,291.035 79.576,284.375 82.502 C 203.579 117.999,144.066 175.117,107.004 252.734 C 99.143 269.197,89.048 294.778,90.027 295.756 C 91.162 296.891,128.948 292.604,130.986 291.109 C 131.056 291.057,131.862 281.348,132.777 269.531 C 133.693 257.715,134.517 247.531,134.609 246.901 C 134.701 246.271,136.855 254.709,139.395 265.651 C 141.935 276.594,144.242 285.817,144.521 286.147 C 145.301 287.070,166.183 277.768,168.572 275.434 C 168.689 275.319,165.431 268.232,161.333 259.683 L 153.883 244.141 158.387 248.829 C 160.864 251.408,166.151 256.968,170.137 261.184 L 177.383 268.850 180.475 266.401 C 185.464 262.450,189.838 256.822,200.815 240.234 C 229.742 196.519,253.889 170.876,284.919 150.920 C 288.043 148.910,290.606 147.039,290.613 146.761 C 290.624 146.301,284.518 144.019,265.406 137.341 C 261.633 136.022,258.677 134.813,258.836 134.653 C 258.996 134.493,270.543 134.753,284.495 135.230 L 309.864 136.098 317.089 132.086 C 325.261 127.548,335.156 121.122,335.156 120.352 C 335.156 120.071,329.268 119.408,322.070 118.879 C 295.524 116.929,295.025 117.857,326.611 110.450 L 354.297 103.958 360.234 97.698 C 391.307 64.931,396.838 29.524,372.798 17.260 C 368.135 14.881,368.316 14.844,330.859 25.836"></path></svg>
