<svg xmlns="http://www.w3.org/2000/svg" height="40" viewBox="0 -960 960 960" width="40"><path fill="#A62F27" d="M284.525-77.717q-30.858 0-52.691-21.975Q210-121.667 210-152.525q0-30.859 21.975-52.692t52.833-21.833q30.859 0 52.692 21.974 21.833 21.975 21.833 52.834 0 30.858-21.975 52.691-21.974 21.834-52.833 21.834Zm400 0q-30.858 0-52.691-21.975Q610-121.667 610-152.525q0-30.859 21.975-52.692t52.833-21.833q30.859 0 52.692 21.974 21.833 21.975 21.833 52.834 0 30.858-21.975 52.691-21.974 21.834-52.833 21.834ZM243.688-731.051l100.79 209.58h284.537l114.739-209.58H243.688Zm-35.889-72.565h662.078L673.761-448.667H327.428l-50.167 93.051h485.022v72.565H154.515l117.391-214.282-147.739-313.051H44.384v-72.565H170.5l37.299 79.333Zm136.679 282.145h284.537-284.537Z"/></svg>
