<svg xmlns="http://www.w3.org/2000/svg" height="40" viewBox="0 -960 960 960" width="40"><path fill="#A62F27" d="M564.558-44.826 267.079-129.6v56.297H34.659v-421.369h319.174l325.022 121.674v79.797h208v149.21L564.558-44.826ZM107.224-145.869h86.385v-276h-86.385v276Zm454.001 25.333 250-76.666v-29.334H516.761l-126.87-40.666 22.667-64 115.587 38h75.08v-30l-262-98.667h-74.146v216.558l294.146 84.775Zm87-339.457-168.07-162.668q-30.238-28.9-51.356-63.93-21.118-35.03-21.118-76.402 0-55.101 37.562-94.025 37.561-38.924 92.315-38.924 33.015 0 60.895 15.609 27.88 15.608 49.692 39.652 21.812-24.044 49.794-39.652 27.982-15.609 60.953-15.609 54.514 0 92.195 38.924 37.681 38.924 37.681 94.025 0 41.308-21.181 76.283-21.18 34.976-51.202 64.049l-168.16 162.668Zm0-99.761L763.7-672.389q19.727-19.065 35.995-40.891 16.269-21.825 16.269-49.235 0-24.954-16.308-42.908t-40.738-17.954q-17.671 0-32.791 9.166-15.12 9.167-26.787 22.943l-51.115 58.275-51.296-58.35q-11.646-13.701-26.686-22.868-15.04-9.166-32.712-9.166-24.43 0-40.738 17.954t-16.308 42.908q0 27.229 16.403 49.07 16.402 21.842 36.04 41.003l115.297 112.688Zm0-173.239Z"/></svg>
