<svg width="4248" height="4248" xmlns="http://www.w3.org/2000/svg"><path d="M0 4255h4248V-6H0z" fill="#a62f27"/><g fill="#fff" stroke="#fff" stroke-width="9.3" stroke-linejoin="round" stroke-linecap="round"><path d="M330 3950c-8-11-18-27-20-35-8-21 16-66 42-81 31-18 111-44 155-50l37-6-38-45c-53-62-62-79-46-95 20-20 49-5 92 49 64 82 169 146 275 168 69 14 235 16 301 4 61-11 184-48 206-63 11-6 29-35 42-62l22-51 98 2 97 3 15 44c19 57 61 135 82 153 44 38 124 28 245-29 60-28 83-35 103-32 26 6 55 37 55 60 0 41-26 53-41 19-13-28-52-44-87-36-16 4-57 27-90 52-53 40-68 47-103 51-39 3-45 0-77-26-37-31-45-30-50 6l-2 22-32-26c-20-17-40-45-58-86-15-33-35-72-44-88l-17-27-12 25c-14 26-58 58-137 97a813 813 0 01-648 4c-37-17-45-19-88-12-29 4-64 4-95 0-57-10-96-1-127 28-19 19-20 25-16 52 5 27 4 32-8 32-8 0-22-9-31-21zM3716 3946c-37-11-37-17 2-38 27-14 42-17 64-13 15 3 28 8 28 12 0 11-30 40-40 40l-18 3c-6 2-21 0-36-4zM2742 3912c-35-16-35-41 0-57 15-5 51-12 82-15 53-5 59-4 120 24l63 31-44 10c-74 17-191 21-221 7zM3806 3883c-4-5-4-9-4-10l45-40c44-40 70-46 109-29 21 10 41 44 38 63-4 20-9 20-21 3-6-9-25-19-40-22-24-5-36-1-67 19-40 26-52 29-60 16zM3279 3820a901 901 0 01-329-107c-208-127-341-296-782-999a53114 53114 0 00-210-326l-44-68-184 3c-101 2-190 6-197 8-18 7-25 164-20 478 8 505 39 556 369 632 31 7 61 17 66 22 5 4 10 25 10 46v39H721v-39c0-43 7-52 48-61 65-13 194-62 233-87 70-47 95-89 123-206 14-54 15-128 15-1044 0-887-2-992-14-1051-15-75-43-141-79-186a794 794 0 00-195-132c-42-18-52-32-52-77v-41l130 5 313 15c180 9 186 9 304-10 108-18 143-19 367-19 245 0 248 1 326 22 101 28 198 76 277 134a610 610 0 01224 295c26 67 26 70 29 215 4 157-1 202-35 307-61 193-194 369-404 537-52 41-94 78-94 84 0 11 36 74 64 110 12 15 39 53 60 84l59 84 101 142 135 193 111 157c204 288 374 484 508 584 63 46 183 100 267 120 140 33 132 30 132 65 0 23-4 33-15 40-55 28-253 45-380 32zM2011 2151c49-4 99-12 111-16 61-23 209-218 247-327 80-227 76-464-12-639a671 671 0 00-236-249c-44-29-224-99-289-113-93-20-244-38-273-32-15 4-31 6-33 5-11-2-15 198-15 714 0 329 3 553 8 565 13 34 100 69 219 88 89 13 158 15 273 4z"/><path d="M1669 1994c-12-3-15-13-15-66v-62l51-44c64-58 190-136 199-126 4 4 5 25 2 48-6 39-9 43-68 94-34 28-80 77-101 107s-42 54-47 54c-4-1-14-2-21-5zM2081 1933a96 96 0 01-59-86c0-16 4-32 8-35 9-5 10-36 1-36l-43 11-37 11-3-23c-2-12 3-37 10-53 20-44 92-114 143-138 98-46 102-48 145-42l41 5-6 44c-7 61-8 62-55 89-53 29-93 74-93 104 0 28 19 48 45 48 10 0 19 3 19 6 0 11-51 83-66 94-20 14-19 14-50 1z"/><path d="M1856 1629c-97-31-166-119-110-140 11-4 20-10 20-14s-17-23-36-42c-51-47-83-117-83-178 0-81 28-118 102-130 78-12 123 33 103 104-8 29-8 42 1 63 23 56 23 56-16 49-19-3-37-7-40-9-9-5-8-50 0-81 11-35-3-72-28-78-34-9-59 3-72 34-27 66 16 157 93 196 76 38 149 48 331 41l164-5c2 1 5 16 6 33 4 39-5 45-86 53-63 6-112 28-195 87-34 24-47 29-80 28-22 0-55-5-74-11z"/><path d="M2141 1322c-11-4-42-17-69-32l-50-25-27 25c-33 29-45 25-45-13 0-67 67-91 167-59 79 24 86 15 51-72-3-6-1-8 5-5 10 6 68 105 75 129 5 15 3 17-12 14-14-3-24 3-37 21-19 25-25 27-58 17zM322 3713c-19-9-20-14-19-63 1-40 5-59 19-78 36-52 138-104 202-104 41 0 61 16 61 46 0 16-2 19-14 13-8-3-39-8-70-9-46-2-62 1-92 16-52 27-73 63-70 118 2 24 6 50 10 58 8 16 0 17-27 3z"/><path d="M375 3709c-23-25-18-80 10-115 45-54 132-79 174-49 25 18 26 78 1 92-20 10-31-1-31-32 0-18-2-19-40-15-60 6-88 39-60 70 7 8 14 24 15 37 1 20-1 23-27 25-20 2-32-2-42-13zM2180 3697c-40-9-84-34-75-43 1-1 35 3 73 11 92 16 178 11 259-17 64-22 98-23 102-3 1 10-14 18-64 35-80 25-221 34-295 17zM3526 3537c-70-22-142-60-190-100l-36-31 23-5c13-2 39-20 60-41 44-47 63-100 57-163-7-86-42-128-106-128-28 0-29-1-18-17 38-57 159-63 195-9 7 12 15 44 18 72 1 27 7 50 12 50 4 0 16-8 26-17 11-10 24-15 31-12 19 8 14 148-7 191-8 17-13 32-11 34 8 8 55-20 60-35 19-51 105-110 149-101 61 12 132 32 132 37 0 3-8 16-20 30l-20 24 18 10 42 23c38 19 60 59 60 107s-15 73-53 89c-39 17-45 14-31-13 15-27 16-71 3-98-11-27-55-45-105-45-59 0-104 30-161 106-26 36-50 61-58 61-8-1-39-9-70-19zM2325 3503c-54-6-140-19-183-28-40-9-44-12-57-45-9-20-15-37-14-37 2-2 42 8 90 21 76 20 104 23 202 25l114 1 21 27c17 22 19 28 10 34-11 6-125 8-183 2zM374 3451c-11-36-20-91-25-150-4-58-2-77 12-124a662 662 0 01272-370c37-21 158-54 167-44 4 4 1 18-4 32-10 22-19 28-57 39-90 25-99 29-155 74-52 42-61 53-100 133a498 498 0 00-67 347c12 41 11 47-16 60-19 10-24 11-27 3z"/><path d="M2213 3408c-38-8-92-26-136-44-50-22-138-71-134-76 2-2 29 6 60 17 84 28 170 44 237 44 66 0 95-8 123-34 18-17 18-17 29-1 6 7 18 24 25 36 13 22 13 22-22 39-33 18-135 27-182 19zM1826 3286c-65-19-92-35-123-69-17-20-25-37-25-56 0-40 17-36 75 18a1956 1956 0 00137 115c11 10-10 8-64-8zM3650 3199c0-31 11-73 29-107 6-12 11-37 11-56s7-68 16-110c21-101 21-202-4-344-11-63-19-116-17-117 2-2 30-11 63-21l60-19 6 77c19 228-19 496-92 658-19 40-29 53-48 59-24 9-24 9-24-20zM2225 3194c-9-7-13-16-9-28 4-20 4-21-28-4-15 7-54 15-91 17l-65 4 3-70c2-38 7-76 11-84 9-18-7-29-29-20-11 4-12 0-7-29 6-41 42-151 52-161 3-4 12 1 18 12l121 190c60 93 108 170 106 172-11 9-69 10-82 1zM1718 3093c-50-12-61-35-67-137-4-50-4-110-3-134 3-43 3-44 14-22 13 27 72 67 115 79 24 7 40 7 75-2 42-10 48-14 64-47 10-19 18-42 18-50 0-20-47-70-67-70-10 0-35 14-56 32s-46 32-54 32c-41 0-95-54-95-97 0-17 1-17 28 9 28 26 28 26 83 22 30-3 66-10 79-15 59-20 131 51 136 134 4 67-19 110-80 144l-45 27 15 26c21 33 20 42-2 56s-120 22-158 13zM3196 3030l-17-23 38-87c64-142 61-125 55-269a575 575 0 00-165-421c-66-67-76-73-173-115l-102-46-114-5-114-4 24-24c25-24 27-24 110-24 107 2 163 16 272 69a601 601 0 01294 311 739 739 0 01-85 661c-4 0-14-10-23-23zM551 3041c-35-11-4-36 43-36 20 0 47-3 59-8 51-19 159-148 191-227 25-65 45-170 50-263 4-88 10-116 26-116 25 0 27 132 3 247a679 679 0 01-135 304c-62 65-181 115-237 99zM853 3004c-13-8-13-10 11-19 24-11 26-14 21-37-7-34-8-62-2-68 8-8 44 21 58 46 22 44-2 87-47 87-15 0-33-4-41-9z"/><path d="M457 2929c0-19 44-74 120-151 89-91 104-115 104-170 0-40-13-60-54-81-40-20-94 0-108 39-2 8-6 8-20 1-13-7-18-17-18-37 0-35 36-75 66-75 12 0 26-2 32-4 6-3 30 8 52 24 48 32 55 33 66 12 4-9 11-16 15-16 15 0 57 83 61 123 5 37 3 43-17 68-46 58-89 98-135 130-26 17-74 58-105 89-32 31-59 53-59 48z"/><path d="M401 2880c-24-55-33-93-43-199a607 607 0 013-198 1064 1064 0 01226-427c34-36 65-64 70-64 19 0 5 30-30 64-52 50-81 92-131 191l-53 100c-30 53-58 199-58 300 0 63 4 88 24 147 15 41 22 77 20 89-7 24-15 23-28-3zM976 2842c-11-7-29-14-41-16-20-4-21-6-13-28 4-14 9-24 9-24l39 13c36 12 38 14 38 40 0 29-2 31-32 15zM3472 2774c-12-8-38-48-38-60 0-2 18-4 40-4 60 0 92-18 111-66 23-54 22-90-6-137-34-59-77-95-145-119l-71-28c-7-3 9-6 35-7 41-3 55 1 105 26 67 33 116 82 134 137 18 52 17 149-2 191-14 29-22 36-62 51-60 22-84 26-101 16zM2726 2682l-59-84 19-22c36-44 85-82 129-101 44-20 48-20 116-12 89 12 92 14 82 50l-8 29 43 8c51 12 83 36 103 79 13 29 13 36 3 63-14 36-31 44-31 13 0-16-8-32-25-48-23-22-28-23-95-23h-70l-57 39c-31 21-56 41-56 44s-8 15-19 27l-17 22zM2600 2507c-25-38-44-70-43-71 25-20 109-56 175-77 92-28 142-54 167-84l15-21 6 43c9 75-27 118-134 159-62 25-103 58-119 95-4 13-12 23-14 23-3 0-27-30-53-67zM1764 2559c-23-5-40-17-66-45-19-22-35-42-36-45 0-4 41-6 91-6 90 0 91 0 105 20 7 12 10 24 7 27-4 2-13 16-19 28-14 27-31 31-82 21zM3614 2404c-13-10-14-15-7-27 7-11 20-14 64-15 64-2 107-22 127-61 16-30 39-27 42 6 3 30-26 75-58 92-36 17-147 21-168 5z"/><path d="M587 2360c-48-15-90-36-90-47 0-4 3-11 7-17 6-9 17-7 62 12 52 21 61 23 171 23 102-1 120-2 154-18 40-18 53-18 53 1 0 20-33 40-82 50-72 15-214 13-275-4zM3619 2318c-35-15-105-82-105-100 0-17-73-91-102-103-35-15-76-15-105 0-17 9-25 20-30 44-6 31-7 31-25 22-12-6-28-22-35-37-16-25-16-28-3-69 14-47 33-63 76-72 27-6 28-8 13-55-7-22 28-38 58-28 12 4 48 11 81 16 52 8 64 13 100 43 27 23 47 49 59 77l46 101c14 31 23 59 20 62s9 3 27 0c37-6 40-9 47-33 4-14-2-26-24-50-16-18-33-33-38-33-14 0-77-76-97-118-22-46-30-93-21-125 6-23 8-24 47-22 32 3 42 0 42-7 0-21 44-54 84-64 36-8 44-7 82 9 23 10 53 31 66 47l26 28-6 95c-7 113 1 134 47 134 35 0 37 4 23 40-22 55-75 60-127 11-35-32-35-52-3-144 35-101 27-145-35-176-33-17-80-8-105 23-39 46-19 139 46 213 38 45 56 92 51 140-5 47-38 119-59 130-33 17-85 17-121 1zM2639 2285c-20-9-43-54-43-86 0-34 46-88 89-106 32-13 41-14 83-5l46 9-43 14c-79 28-112 88-80 151l17 33-25-1c-15 0-34-4-44-9z"/><path d="M858 2228c-14-29-44-80-68-114s-49-74-57-89a678 678 0 00-163-165c-51-33-62-49-50-62 5-5 26 7 59 36 27 24 79 65 114 93 62 46 107 97 107 119 0 6 16 34 36 63s39 62 41 74l11 49c18 66 2 64-30-4z"/><path d="M375 2180c-52-94-58-162-26-267 36-113 87-159 223-205 64-23 77-24 77-8 0 6-15 15-38 20-50 12-145 71-167 103-10 14-29 57-43 95-36 97-37 160-2 236 23 48 27 77 10 77-4 0-19-23-34-51zM3027 2058c-47-35-95-85-122-122-29-42-33-86-9-150 23-63 30-67 120-69l77-1 23 28c13 15 23 37 23 49 0 34-17 42-77 36-59-6-64-4-85 27-30 45-14 97 51 164 26 28 47 52 47 55 0 11-21 3-48-17zM3470 1890c-18-13-52-45-75-71-36-40-99-93-147-124a2703 2703 0 00-364-121c0-5 25-121 26-123l68 18c37 10 116 45 177 77 117 60 220 138 314 237 39 41 45 52 45 79 0 48-9 54-44 28zM3504 1777c-26-40-58-116-64-154l-2-30c8 0 108 188 107 198-5 23-20 17-41-14zM3552 1726c-37-65-38-68-38-139 0-39 4-84 9-99 19-57 75-92 134-85 26 4 30 2 40-19 10-22 13-23 63-23 48 0 55-2 78-25 41-39 59-11 27 44-12 20-29 33-63 47-57 25-65 44-45 106 26 84 12 124-46 124-33 0-33 0-16-33 11-23 11-27-7-62-11-24-18-52-18-77 0-38-1-40-22-42-44-6-94 49-109 119-12 53 2 108 41 166 28 43 33 64 15 64-3 0-23-30-43-66zM838 1732a490 490 0 01-281-178c-30-33-65-77-75-97-16-32-18-40-10-68 5-17 14-39 21-48 12-16 12-16 25 0 7 9 21 35 31 58s38 68 62 99c38 51 53 64 114 99 75 41 111 58 171 76 34 11 36 14 39 42 2 28 1 29-20 29-12 0-48-6-77-12z"/><path d="M444 1683c-28-68-44-154-41-224 3-91 31-151 105-230 64-70 114-94 185-94 61 0 100 20 154 79 62 68 82 159 52 245-13 40-82 123-83 101 0-7 5-18 12-22 6-5 19-28 29-51 21-48 24-123 8-180-29-103-172-161-271-110-43 22-106 87-130 135a386 386 0 002 340c18 34 19 40 2 40-6 0-17-13-24-29zM3347 1613l-121-123c-41-42-119-134-132-160-18-34-14-39 28-35l37 3-61-58c-34-32-70-74-79-94-42-85-61-203-36-213 8-3 32 3 54 12 22 10 42 16 44 14s-5-19-16-38c-27-47-38-108-33-174 3-32 2-65-3-79-7-21-6-25 3-25 22 0 58 23 75 48 19 27 30 29 44 10s31-4 48 42c11 28 12 45 6 108-5 49-5 82 0 97 9 27 41 38 59 20 10-9 10-18-1-66-14-59-11-175 7-225 8-23 53-75 116-134 21-20 26-21 32-12 4 6 8 20 8 30 0 26 26 23 43-6 8-13 20-27 28-32 20-10 143-26 217-27 50-1 68-5 109-27l50-26 12 25c29 54 8 154-44 208-21 22-29 36-23 42 4 5 13 2 24-8 16-14 17-14 27-1 20 27-12 117-57 158-51 48-115 63-267 63-99 0-104 1-123 20-23 22-25 53-6 72s62 12 113-21c36-22 54-28 107-32 40-4 71-2 80 3 15 8 15 8-7 27-27 22-20 31 34 39 18 2 49 15 67 28 20 13 52 27 73 32l37 9-28 36c-41 50-97 77-142 70-19-3-39-3-44 1-14 8 5 25 33 31 30 7 29 23-2 45-20 15-44 19-127 27-93 8-105 11-132 32-43 33-62 82-66 169-3 60 0 83 14 126 10 28 16 56 15 59-2 3-44-37-94-90z"/><path d="M693 1554c-26-16-80-83-102-127-8-14-14-38-14-53 0-38 26-94 53-116 19-15 28-17 70-12 54 6 73 19 81 57l5 25-34-12c-47-16-75-6-93 35-24 57-4 137 48 192 27 29 22 33-14 11zM387 1276c-35-67-56-337-35-442 29-139 36-166 53-203 31-63 42-93 52-137 11-49 2-74-44-114-24-21-34-25-52-21-19 5-23 3-23-10 0-40 71-59 114-30 12 7 26 13 32 13 24 0 55 53 66 116 9 59 9 63-8 98-14 28-17 43-13 63 9 40-1 69-67 197-58 115-61 121-61 174 0 35 4 53 8 50 5-2 8-20 8-38 0-122 118-285 205-285 32 0 37 5 60 56 11 25 32 54 46 63 43 32 55 104 23 139-10 10-42 28-72 40-46 19-55 27-62 50-5 15-11 27-13 27-12 0-50-26-54-36-18-46 3-67 79-83 56-12 64-16 70-36 11-34 1-60-30-73-36-16-57-14-98 4-65 30-91 99-97 268-5 112-6 119-21 122-9 1-20 10-24 20-10 22-32 27-42 8zM972 1226c-38-23-89-85-103-126-24-69-10-151 26-166 24-9 26 10 6 40-41 61-22 126 59 196 26 24 48 49 48 57 0 18-6 18-36-1z"/><path d="M625 665c-45-13-55-26-50-64 14-107 108-188 289-248 78-25 106-30 188-35 116-6 221 7 272 34 19 11 40 17 46 15 7-3 14-1 16 3 3 5 20 16 39 25 41 20 110 78 110 92 0 13-25 20-70 20-23 0-40-5-56-19-35-29-114-67-183-86-78-22-212-23-289-3-108 28-246 128-263 192-5 18-9 44-9 58 0 28 1 28-40 16zM2796 576c-16-11-34-25-40-33-11-14-10-14 10-10 13 2 25 0 28-5 4-7 15-7 43 1 29 8 39 16 43 30 3 10 3 23 0 27-9 15-55 9-84-10zM2461 574c0-2 34-21 75-40 79-37 148-52 172-36 22 16-4 26-69 28-54 1-69 5-110 27-44 24-68 32-68 21zM3019 561c-69-26-111-51-94-58 8-3 30 4 51 17 32 18 50 23 106 25 86 4 124-5 168-43 37-32 51-30 33 4-19 33-94 67-158 71-43 2-65-1-106-16zM2535 502c-14-6-13-42 1-48 16-6 44 1 64 16 15 11 15 11 0 19-22 11-54 17-65 13zM2793 500c-4-4-2-10 3-13 4-2 8-13 8-24 0-22 26-32 60-24 48 11 25 55-33 64-20 3-35 2-38-3zM1587 454l-94-48c-20-11-40-23-42-27-7-12 18-9 38 4 33 21 164 54 192 48 37-8 45-16 50-59 5-35 7-37 24-34 44 8 59 79 26 116-16 16-29 20-79 25-59 5-62 4-115-25zM3047 471c-40-15-52-31-52-69 0-47 28-70 79-70 22 0 43 4 45 8 8 13 3 15-43 21-35 4-43 8-49 25-12 31 12 60 60 68 57 12 79-3 82-55 1-22 4-47 6-56 8-35 82-47 119-19 30 24 25 32-13 20-19-5-43-7-54-4-18 4-20 8-20 52v47l-39 19c-51 24-82 28-121 13zM1862 458c-25-23-22-78 6-104 36-34 74-49 122-49 56 1 88 15 165 72 61 46 63 46 114 46 29 0 60-3 70-6 13-5 18-4 18 5 0 21-31 40-74 44-40 3-47 0-132-49-109-63-136-73-188-67-59 7-83 37-61 78 10 19 52 20 94 3 36-16 86-8 112 15 9 8 17 18 17 21s-55 5-123 5c-110 0-126-2-140-14zM2604 454c-11-8-24-19-29-27-15-16-10-56 8-67 13-7 19-4 42 23 31 36 35 53 11 47-18-5-20 0-8 22 11 19 2 19-24 2zM2768 444c-2-4-1-9 4-13 4-2 8-12 8-20 0-11-4-14-14-10-11 5-11 2 3-21 28-47 84-65 89-28 4 27-77 111-90 92zM2706 431c4-12 1-13-11-10-19 5-27-10-27-54 0-50 39-68 55-26 9 25-1 96-13 101-7 1-8-2-4-11z"/><path d="M3300 419c-29-7-54-18-56-24-2-7 2-8 16-4 84 24 91 24 138 2 41-19 44-22 44-49 0-34 12-42 36-25 22 14 26 37 12 72-12 35-111 50-190 28z"/></g></svg>