<svg xmlns="http://www.w3.org/2000/svg" width="1930" height="1930"><path d="M1114 244c0 10 40 29 76 36a452 452 0 0 1 81 22c20 5 32 10 43 18 7 6 7 6 21 7 21 3 49 12 53 17l26 23-2 2c-6 7-7 23-1 24l29 5c26 1 55 13 71 29a125 125 0 0 1 17 20l3 6 2 4 2 4 3 8 3 7 2 10a210 210 0 0 1 5 30l1 26a342 342 0 0 1-23 113 396 396 0 0 1-41 79c-4 6-15 15-20 15-5-1-4-6 9-26a193 193 0 0 0 14-26 223 223 0 0 1 11-24l4-8 8-21 3-7a210 210 0 0 0 6-136 67 67 0 0 0-45-48c-12-5-42-9-43-6-1 1 22 23 25 23s15 14 20 24c5 9 9 24 8 31s-7 21-10 25l-1 5-5 9c-6 11-6 13-7 44a162 162 0 0 1-3 45l-1 5-3 13-2 11-5 13-8 17-5 9-4 8-2 4-2 3-4 7-3 6-2 4-2 5-3 4-2 3-2 5-3 4-2 3-3 4-2 2-6 8a70 70 0 0 1-18 19c0 2-9 14-11 15a442 442 0 0 0-37 34l-7 6-9 7-5 4-6 5-6 5-7 5-11 9c-5 4-16 12-18 12l-3 3-3 2-14 10-10 6-6 4-8 5-13 8-4 2-3 2-4 2-4 2-9 5-8 4-4 2-2 1-3 2-8 4-7 4-6 2-17 9-7 4-7 3-5 2-4 2-5 1c-21 11-20 10-19 14 2 9 5 13 10 10l9-3 7-3 10-5 5-2 4-1 9-4 14-5 10-4 5-2 6-3 12-4 18-8 4-1 3-2 6-3 10-5 7-3 3-1 4-3 11-7a249 249 0 0 1 19-12l4-3 3-2 11-8a207 207 0 0 0 32-24 167 167 0 0 0 27-24l10-9a246 246 0 0 1 29-25l6-5a816 816 0 0 1 42-35 348 348 0 0 0 35-32 1208 1208 0 0 0 57-63 503 503 0 0 1 19-28l8-14a169 169 0 0 0 16-34l1-3 1-5a394 394 0 0 1 5-24 16929 16929 0 0 0 4-54 542 542 0 0 0-4-99 138 138 0 0 0-11-69l-2-7a1009 1009 0 0 0-20-29c-4-8-32-36-43-44-20-13-29-16-46-16-13-1-17-2-32-8-10-5-14-6-18-7a387 387 0 0 1-33-7l-14-2-13-1h-17a934 934 0 0 0-55-3l-13-1c-9-1-16-2-37-8-14-3-30-5-49-5a243 243 0 0 1-37-3l-11-1h-2m550 6-3 1h-6l-9 1a176 176 0 0 0-37 9l-15 8-5 3-16 17-2 3c-1 3-4 11-4 17a2625 2625 0 0 1-1 17l2 10 4 15 14 26c2 3 8 14 7 15l2 3 1 4 2 4c4 11 6 26 4 43a940 940 0 0 0-6 46 284 284 0 0 0-5 33l-4 19-2 20a417 417 0 0 1-2 32c2 2 6-4 5-7 0-2 0-3 2-4l2-5 1-3 3-4 1-5 1-4 1-4 2-3 1-4 2-4 4-17 2-6a273 273 0 0 1 8-35 268 268 0 0 1 7-38l2-9 1-6 1-9c1-7-2-24-5-30l-12-19c-5-6-9-13-9-18 0-7 17-16 21-10 10 14 42 14 48 0 8-19-33-30-49-14-3 3-9 4-13 2-3 0-7-10-7-12v-6c-1-4 3-15 8-20l1-3c0-2 11-12 14-14a578 578 0 0 0 24-12l5-1c3-3 17-4 29-4l13-1c1-5-16-16-24-17l-6-1-3 1m-903 3a605 605 0 0 0-103 13c-17 3-68 2-160-3-114-6-157-7-158-6l-1 18c1 27 3 30 28 42 78 39 106 70 122 133 10 37 10 30 10 514 0 501 0 468-15 516-18 54-57 81-151 105-30 7-30 8-30 35v18h586l-1-16c0-31 3-29-56-44-142-35-152-60-152-356-1-155 0-157 20-158 28-2 75-3 118-3h47l30 46c41 62 86 132 109 170 232 368 302 442 455 480 81 20 226 11 237-14 9-23 1-31-48-42-90-22-144-54-212-126-65-69-113-131-249-326a16304 16304 0 0 0-136-192c-11-15-28-43-30-50 0-3 8-11 32-31 74-60 114-102 150-155 34-52 58-112 66-164 6-39 3-148-5-173-26-85-82-149-169-193-37-18-81-33-111-37-14-1-192-3-223-1m-499 16c-15 8-12 31 5 37 18 6 28-8 20-26-4-10-18-16-25-11m1096 27a530 530 0 0 1 25 11 455 455 0 0 1 76 30l22 18 8 7 8 7 5 6a318 318 0 0 1 50 57c3 0 2-18-2-23l-2-4a249 249 0 0 0-62-62l-7-6-2-2-3-2c-7-6-34-19-47-22l-27-8c-19-5-42-9-42-7m-663 36-8 2c-8 0-13 540-5 597 5 37 150 59 267 40 39-6 109-94 133-167 56-170 12-320-117-403a558 558 0 0 0-270-69m-392 3c-16 4-29 23-21 30l1 3c0 3 7 13 15 21 13 13 13 14 11 32-1 4-1 7 2 19a378 378 0 0 1 6 37 251 251 0 0 0 6 54 704 704 0 0 0 2 23l3 54a179 179 0 0 0 8 41 227 227 0 0 1 8 24l3 7 2 6a84 84 0 0 1 8 17l3 6c2 3 4 7 11 14l4 5c2 3 4 4 5 2l-1-6-4-10c0-2-1-5-3-7-1-1-2-3-1-4l-2-7c-13-27-20-65-15-78l3-14a307 307 0 0 1 44-84l6-11c12-25 16-46 10-59-13-29-28-44-61-63-29-17-41-30-41-46 0-6-4-8-12-6m977 22c-9 2-21 8-16 10l2 2 3 1c8 0 19 12 24 24l4 9 4 11 3 6 2 7 7 24a238 238 0 0 1 10 34c3 11 3 22 1 33l-1 34v37a515 515 0 0 1-15 86 42828 42828 0 0 1-28 120c-2 5-2 11 1 11l2-2c0-2 4-9 6-10l3-4a1888 1888 0 0 1 28-55c35-81 47-125 46-169a383 383 0 0 0-7-76c3-6 11 30 14 60 3 37-1 66-19 119a486 486 0 0 1-25 66c-2 7-12 27-23 49-17 34-16 31-14 35 1 5 3 5 6 1l5-8a399 399 0 0 0 22-32l7-11c16-20 39-67 64-126 13-30 14-35 14-54a316 316 0 0 0-17-106l-4-13-5-11a16386 16386 0 0 1-20-39l-5-8c-2-5-12-18-21-27a80 80 0 0 0-51-28h-7m-551 42c-12 3-20 24-12 32 12 12 25 8 30-11 2-10-1-16-9-21h-9m144 3c-1 2-12 7-17 9-2 0-10 7-10 9l-1 2c-7 7-7 29-1 38l3 4 3 4 2 4 3 5c7 10 20 37 22 46 2 4 3 4 4 1l7-14c2-5 14-17 16-18 4-1 13-7 14-10 4-10-11-43-28-63l-6-11c-5-8-9-10-11-6m-533 1 3 3c23 23 31 53 22 80a322 322 0 0 0-9 28l-4 10-2 7-1 3-3 11c-2 23-1 40 3 30l3-8 5-18a94 94 0 0 1 6-21l1-5 2-4 1-5 1-2 1-4 2-4 1-4 2-7 4-13c3-27 3-32-4-44-8-16-34-41-34-33m28 5 6 7c23 22 28 47 17 75a1326 1326 0 0 0-29 81l9-14 5-11 5-10 8-18a204 204 0 0 0 13-31c6-23 5-38-6-55-8-12-28-30-28-24m405 16c-4 3 8 26 15 30 7 3 7 13 0 13-4 0-4 6 2 24 6 16 15 28 37 52a222 222 0 0 1 22 27c1-1-1-14-2-15l-3-8c-4-11-10-23-16-32-9-12-8-15 1-6 11 11 20 32 30 64a369 369 0 0 1 15 89c1 23 1 80-1 81-2 0-3-1-4-14l-4-16-4-12-5-16c-3-10-3-12-4-24a186 186 0 0 0-30-100c0-3-18-24-26-29-7-6-8-5-8 2 1 15 0 16-7 8-3-5-14-12-18-12l-3-1-2-1-8 2-8 2-5 2-1 1-3 2c-5 2-16 13-20 19l-3 4-2 4-3 4c-7 5-4 16 3 16h8l5 3 4 4 3 4 1 2 1 2c2 0 5 9 7 17 0 3-5 7-7 5-6-6-4 13 2 27l3 6c0 6 35 35 42 35l3 1 7 2a65 65 0 0 1 12 1h7c15-1 18-3 9-9-6-3-9-5-17-6l-7-2-6-2c-8-2-23-12-23-15 0-2 8-1 12 1 5 3 14 6 26 8s16 4 26 13c12 10 26 33 30 52l3 13 1 28c0 20 0 24-4 39a385 385 0 0 0-7 26l-1 4c-4 8-5 10-5 13l-3 8-3 6-2 5-5 13-19 48c-3 5-3 5 3 9 5 3 17 3 20-1a153 153 0 0 0 13-30l5-10 2-5 6-18a243 243 0 0 1 9-25l2-6 3-8a393 393 0 0 1 17-46l5-13 4-10a44975 44975 0 0 1 29-56l8-12c10-16 19-23 40-30l17-7c9-5 10-5 10-2 0 4-10 12-19 16a402 402 0 0 0-25 12c-4 2-10 9-9 9h3l12-2 13-2 9-2 7-3 6-3 3-2 9-6 12-10 7-8c9-10 17-23 20-34 2-8 0-8-12-1-9 6-9-1 0-11 6-5 14-19 14-23l3-6c10-16 10-15-11-15h-11a50 50 0 0 0-32 8c-8 6-12 2-6-7 8-17-27-10-47 9a90 90 0 0 0-25 46l-2 9-4 24a283 283 0 0 1-30 94c0 2-4 6-5 6s-2-1-1-4a408 408 0 0 0 10-79 787 787 0 0 1 3-64c3-30 14-57 30-70 8-5 12-3 6 4-13 15-27 45-21 45a637 637 0 0 0 44-44c10-9 11-9 13-14 3-7 2-15-3-19-3-3-1-5 3-4 5 1 8 3 15 10 15 14 17-11 2-26-27-26-81-6-96 37-6 17-6 23-4 64 0 21 0 29-3 29-2 0-6-38-7-64 0-29-3-43-14-62-11-23-9-19-31-50-12-16-32-30-43-28h-5c-7-2-9-2-9-1m105 11-1 7c1 7 3 7 4-1s-1-12-3-6m-431 60a111 111 0 0 0-27 39 294 294 0 0 0-24 52l-2 7a1026 1026 0 0 1-7 27 293 293 0 0 0 22 133l3 8 3 8 4 8 5 9 4 7 4 6c3 6 5 2 3-6l-3-16c-2-2-4-21-4-36 0-7-1-12-2-13-2-2-1-26 1-35 4-20 5-36 3-41l-2-6c0-8-1-15-3-17-5-10-4-25 2-36l7-15c7-13 8-23 7-45-1-8 0-10 2-15l2-7c0-2 4-12 6-14 2-3 0-5-4-2m1234 16-2 1-3 1-4 1c-8 0-22 9-32 20-7 6-9 10-17 22l-11 25-5 10-3 5-1 3a258 258 0 0 1-16 31l-5 11-2 3-3 4a177 177 0 0 1-6 12l-3 5-3 6-2 4-4 7-4 7-5 8-5 7-3 5-4 6-4 6-1 2-3 4c-6 11-11 17-30 37-15 16-21 22-19 23 3 2 6 1 11-3l11-8a283 283 0 0 0 62-66l6-7a2469 2469 0 0 0 47-49c14-18 19-29 21-44a8016 8016 0 0 1 4-33l3-8 5-9 5-9c4-7 23-25 31-29 10-5 9-12-2-12l-4 1m-282 78-3 10a274 274 0 0 1-18 58l-25 49c-8 15-10 21-8 21a382 382 0 0 0 45-82c5-13 14-49 13-55-1-2-3-3-4-1m-626 8c0 2 3 7 6 10l7 8 7 9 15 20c10 14 15 12 7-3-6-12-9-16-19-26-17-17-23-22-23-18m-521 14c-20 13-25 33-16 65l6 21c-2 2 1 27 3 33 8 22 21 37 41 46 11 5 13 7 28 25a124 124 0 0 0 28 27l16 8 16 6 13 5 6 3 6 2h3c3 3 3-1 1-5l-5-8-12-16-5-9-3-3-2-2c0-3-5-11-9-16l-4-6-8-14-3-5-3-5-4-5-2-3-5-4a129 129 0 0 0-32-24c-1-1-3-3-5-3-7-3-8-8-2-7a488 488 0 0 0 12 4l5 3c19 10 20 11 33 25a170 170 0 0 1 30 39l5 7 5 9a228 228 0 0 0 19 28l11 14 1 3c1 2 11 10 14 11 5 1 5-7 0-16l-3-7-13-21a223 223 0 0 1-12-19 255 255 0 0 0-29-44l-3-5-5-7c-2-4-7-9-10-12l-5-6a226 226 0 0 0-33-29c-5-4-10-7-13-7l-6-2-12-5-4-3-6-4c-6-3-20-18-20-21l-1-3c-2-1-5-13-5-15v-7l1-6 4-8c4-5 0-7-7-2m740 14c-14 3-48 38-43 43 1 1 6-2 11-8l32-30c9-5 8-7 0-5m330 62a253 253 0 0 0-20 54c-2 7-2 9 0 8 4-2 15-30 20-49 4-17 4-17 0-13m-559 39c-9 2-22 11-26 17-9 10-10 13-14 21-6 14-7 16-8 25a91 91 0 0 0 0 38c2 9 12 32 20 45a569 569 0 0 0 29 42 266 266 0 0 0 12 23c0 3 3 4 9 4h6a342 342 0 0 0-33-70c-5-9-7-15-10-27-4-14 1-40 10-50 15-18 42-12 47 10 1 8 18 3 18-6l1-4c6-14 0-41-12-53-18-16-30-20-49-15m209 7c-25 3-42 21-46 46a46 46 0 0 0 4 23c0 3 14 19 15 17l2-5c5-18 29-30 41-20l3 1c2 0 9 8 9 10l1 3c6 6 3 36-5 44l-3 5a43 43 0 0 1-23 18l-2 1-14 4-11 2-3 1-10 2-2 1a214 214 0 0 0-33 17c-7 4-21 19-31 31-12 14 4 17 21 3a132 132 0 0 1 33-19l8-4 3-1 4-1 9-4a552 552 0 0 0 45-18c14-7 31-23 39-39 8-15 11-48 6-65-4-15-6-19-11-26l-3-6c-4-7-22-18-31-21h-15m624 27c-15 2-24 13-23 25 1 13 7 25 14 25l4 2c7 5 26 0 33-8 16-20-2-49-28-44m-46 24-5 1-7 2-9 4a290 290 0 0 1-37 14l-8 2a303 303 0 0 0-81 48c-6 4-17 15-17 17l-1 3c-7 5 13 2 21-4l6-2c2 0 4-1 12-7l8-4 8-4 8-5 6-3 14-8 21-12a170 170 0 0 1 36-15l19-7c13 0 28-14 22-20h-16m-780 11c-3 2-8 11-8 15 0 13 14 19 23 11 13-12 0-35-15-26m198 7c-14 7-9 31 7 31 9 0 14-5 14-15 0-15-9-22-21-16m-578 70-15 1c-17 1-21 2-32 5-18 5-49 26-49 33l-3 3-2 3-3 6-3 5-6 2c-34 7-33 56 1 55 23-1 37-36 18-46-2-2 1-9 5-9l7-7c7-7 12-10 19-13l9-3c16-8 45-13 62-11l18 1 14 1c6 2 9 1 8-4v-8c0-6-2-9-6-9l-12-3c-17-3-24-3-30-2m1057 10-11 1-13 2h-3l-12 3-9 2-8 3-10 2-17 6-3 1a137 137 0 0 0-35 26 1355 1355 0 0 1-24 25c-6 9-15 17-22 23l-11 8-7 7-3 2-3 1c-1 0-3 1-4 6-1 1 3 1 15 1 8 0 18 1 21 3s13 0 26-6l6-2c2 0 9-3 14-7 2-2 6-4 9-4l8-4 4-2 6-2 6-3 7-3 7-3 7-2 7-2 15-5 9-3 7-2 7-2a763 763 0 0 0 40-9c7-4 57-6 61-3 5 3 0 7-10 8a234 234 0 0 0-41 5 387 387 0 0 0-52 15 375 375 0 0 0-63 23c-10 3-5 8 5 6l10-1a205 205 0 0 0 69-17 20512 20512 0 0 1 46-14l11-2a174 174 0 0 1 69 6c6 1 11 3 14 6l7 5c4 2 9 7 12 11l5 6c6 7 9 14 10 24l1 5 1 5c0 12 12 21 14 11l2-5 1-5 1-6c3-8-3-37-10-53l-2-5-1-3c-2-1-7-8-7-10s-21-23-28-28a158 158 0 0 0-49-25l-6-3-5-1-5-2-9-3a853 853 0 0 1-35-7 198 198 0 0 0-42-4m-37 39-16 4a249 249 0 0 0-91 60c3 2 3 2 18-7l7-3 8-5 7-4 3-2 7-4 10-6 5-3 6-3 6-3 2-3 3-1 16-7 19-9c3 0 9-3 9-4 0-4-6-4-19 0m-978 34-7 3-4 2-20 20c0 4-16 16-24 18a63 63 0 0 0-21 10c-3 0-25 23-25 26l-3 4-3 4-2 4-4 8-4 9-5 15c0 5-18 25-23 25l-10 9-7 9c-4 6-6 8-6 11l-2 11a163 163 0 0 0-5 35c-2 7 2 85 5 92 1 3 4-1 5-10a429 429 0 0 1 25-86l2-4 5-11 4-10 2-2 4-7a55 55 0 0 1 7-11 417 417 0 0 1 53-70c9-12 19-18 18-10l-3 6a181 181 0 0 0-22 27 161 161 0 0 0-15 21 182 182 0 0 0-12 20l-4 6-3 4-9 14-2 3-13 27-5 12-2 5-2 4-2 6-3 9-3 8-3 12-1 5a305 305 0 0 0-11 104 954 954 0 0 1-2 64 239 239 0 0 1-10 32 157 157 0 0 0-9 35c-2 2 0 23 2 24v1c0 2 10 15 15 18l19 19c0 4-12 8-27 8h-24c-19 0-21 1-22 10l-1 8c-1 2-2 2 17 2a261 261 0 0 0 63-4 389 389 0 0 1 29-4l9-1c13-2 10-13-7-21l-9-6-6-5-2-1-5-5-9-7-5-7c-10-10-14-32-9-46l2-7c0-5 2-9 5-12l2-6 3-4 4-7c1-4 3-6 4-7l1-2c0-2 7-13 10-17l2-2a209 209 0 0 1 35-31c5-5 12-8 20-11l23-5c10-2 24 0 33 4l8 3c2 0 14 8 18 12s4 4 4-5l1-9c5-9-22-24-44-26a109 109 0 0 0-68 24 221 221 0 0 0-35 38c0 3-7 9-10 9l-2-1 4-8 3-6 4-8 2-4 4-5 7-10c3-5 21-23 25-25l8-5c3-2 8-3 10-3l9-3c17-8 58-7 74 3 7 5 7 4 9-5 2-15-5-20-34-22-24-2-34 0-52 7a135 135 0 0 0-68 61l-3 7-5 9c-2 2-4 0-4-3l-1-5a248 248 0 0 1 25-151 83 83 0 0 1 13-20l3-4 5-7 11-12a67 67 0 0 0 9-11l5-5 10-10a201 201 0 0 0 31-42l3-5c7-13 13-17 13-8l-9 20a413 413 0 0 0-11 19l-2 2a5645 5645 0 0 0-57 68l-5 8-4 6a229 229 0 0 1-9 16l-2 5-7 15-3 7c-3 6-7 22-9 32l-1 7c-3 6 0 13 3 9l2-4c0-2 6-17 8-19l2-6 3-8 15-31a289 289 0 0 1 64-80 132 132 0 0 0 34-57c7-4 13-59 9-86l-1-13a993 993 0 0 1 2-29l5-15c3-6 1-7-10-5m1078 46c-21 7-27 32-11 42l6 5 7 3 4 1c0 2 11 1 14-1l6-3c3-1 4-3 5-7l3-6 2-5v-4c2-5-1-13-7-18-5-6-4-6-22-8-1-1-5 0-7 1m-299 10a425 425 0 0 0-59 8l-5 2-23 9-14 6c-13 3-19 9-14 13 3 4 6 4 24-1l11-2 8-3 7-2 6-1 4-1 6-2a223 223 0 0 1 108 2l8 3 2 1a246 246 0 0 1 48 25c2 0 15 11 19 17l6 8c6 6 14 18 18 27l4 8c3 4 6 12 9 23l6 13 2 5 2 6 2 7 3 6 1 5 2 3 1 3 2 4 1 5 1 4 1 6 2 6 1 3 1 6 2 6 3 10 2 11 1 7 4 25 1 11c4 13 3 35-1 38-5 4-7-1-8-17a101 101 0 0 0-6-30v-4l-2-4v-4l-2-6c0-8-2-14-3-15l-1-6-2-6-2-13c-1-4-3-11-5-13l-1-6-1-4-1-4-2-5-4-12-8-20-2-6-3-8-5-10-2-5-3-5a123 123 0 0 0-14-25c0-2-4-7-8-12l-7-10-4-3c-17-11-18-12-24-7a96 96 0 0 0-24 28c-4 6-12 23-11 25l-1 5c-9 19-8 73 1 67 10-6 16-5 15 4a83 83 0 0 0 1 39 164 164 0 0 0 21 40c2 4 5 2 11-4 2-3 7-2 8 1 1 5 8 18 13 23l6 7 5 5 6 4 5 3 5 4 8 5 9 8 7 8 4 4c0 1 2 4 5 6l7 11 7 11 5 7 2 5 6 13 1 6 3 10c1 8 3 14 5 14 1 0 13-13 14-17l3-5 7-16 2-4c2-2 5-13 5-16l3-7 3-11 2-9 3-12a675 675 0 0 1 15-84l2-11 1-16c1-21 0-26-3-36-3-9 4-11 15-6 7 3 12 4 10 1l-1-6a368 368 0 0 0-37-87l-5-7-10-11-4-4-5-4c0-2-11-12-17-15l-7-4c-6-5-19-9-33-12h-21l-8 1c-6 1-7 3-4 6 2 2 1 4-2 2l-3-1-4-2-4-2-7-4a208 208 0 0 0-76-26l-15-2-7-1c-5-1-21-2-35-1m-20 33-7 3c-5 2-10 8-11 11l-1 5c-2 3 0 12 2 15l2 3c0 2 8 10 10 10l4 2h8l4-1c4 0 10-2 10-4l2-4c2-1 3-5 3-7l2-6c2-1 2-13 0-14l-3-4c0-2-2-3-2-3l-4-2c-3-2-5-3-13-4h-6m-429 43-5 5a355 355 0 0 0-8 16l-4 6-7 17-5 10c-4 5-6 10-6 11l-4 8-6 15-5 10c-7 8-6 6-6 69l1 30 8-16 11-22c6-9 22-27 30-33a158 158 0 0 1 27-16 111 111 0 0 1 106 10l7 4 9 8c12 10 30 38 30 45l1 3c5 4 7 34 4 47l-2 11c-2 7-6 18-9 22-2 3-18 15-22 18l-20 7-6 2-9 1a172 172 0 0 0-22 2 231 231 0 0 0-61 12 147 147 0 0 0-32 15c-12 6-35 28-35 33l2 7 3 11c2 7 1 8 11-2 13-12 19-17 34-24a67 67 0 0 1 20-8l19-6 5-1 4-1a176 176 0 0 0 35-5 220 220 0 0 0 69-15l8-5a92 92 0 0 0 26-31c3-6 5-11 5-14l2-9c2-7 3-27 1-29l-1-10a104 104 0 0 0-12-42c-3-12-21-37-35-49a10778 10778 0 0 1-31-25l-3-1-3-2-9-4a131 131 0 0 0-84-8l-7 1a63 63 0 0 1-20 4c-4 1-8-5-4-7l1-3 1-5 3-6 4-10 3-7 3-5 2-5 3-5 2-6 2-3 3-5 4-8c3-3 3-7 1-9-4-2-22-1-27 2m54-2-4 1c-2 0-6 4-11 12a593 593 0 0 1-19 34l-1 4-2 5-7 14c3 3 23-8 23-13a198 198 0 0 1 35-54c0-2-11-5-14-3m747 4-4 1c-2 0-11 9-11 10l-2 3c-20 17 10 55 34 43 12-7 15-13 14-37 0-13-5-18-19-21-9-1-9-1-12 1M412 1220a86 86 0 0 0-31 10l-5 3-4 2-3 2a136 136 0 0 0-43 42 80 80 0 0 0-12 24l-3 10-5 11c-5 12-2 14 7 3 12-15 36-35 42-35l4-2c11-5 18-7 37-9a189 189 0 0 1 52 1c6 3 7-3 5-46v-9c0-7-23-10-41-7m1153 2c-17 2-18 7-1 18 5 4 14 13 14 15l2 3 3 9a38 38 0 0 0 3 10l3 10 1 4 2 7 1 12c1 14-1 37-3 43l-7 7c-2 2-6 6-6 8l-4 8c-4 5-7 14-7 22a148 148 0 0 0 4 47l3 14c3 14 3 38-2 60a1236 1236 0 0 0-6 26c0 3-2 9-7 16l-4 9-2 7c-3 3-5 9-5 12 1 6 4 6 6 1l2-3 3-2a373 373 0 0 1 17-16s2-1 2-3l6-7 5-5 9-14 7-10 11-20c16-27 24-78 23-141v-19c-2-6 1-15 4-13a265 265 0 0 1 6 113l-1 4a917 917 0 0 0-12 49l-10 20-3 6-9 16a7686 7686 0 0 0-25 32 292 292 0 0 1-20 23l-3 4c-9 8 1 16 10 9l6-5 11-9a202 202 0 0 1 28-21l11-10a244 244 0 0 0 68-90c2-6 5-15 7-32 3-21 3-35 2-45l-2-16-2-12-4-12-2-9-1-4-1-3-1-3-4-13-4-10a45 45 0 0 0-6-13l-3-5-3-5c0-2-10-15-18-25l-10-12-5-5-5-5-5-4-9-6c-7-6-13-8-37-15-6-2-15-3-21-2m-116 8-1 13a1880 1880 0 0 1-2 82c-6 41-7 50-3 51 3 0 8-8 8-12l1-5 2-7a7691 7691 0 0 1 6-33c4-4 4-58 0-74-4-14-4-15-6-16s-3-1-5 1m-619 22-10 1-8 2-20 7c-7 2-20 8-33 16l-16 12-5 4c-5 3-7 6-10 10l-7 8c-10 11-11 14-10 26a278 278 0 0 1 2 34 202 202 0 0 1 52-56 235 235 0 0 1 57-28c9-3 36-4 46-2 9 3 18 10 11 10-8 0-20 19-16 27l2 5c3 7 11 12 18 10h4l3-1c10-4 13-6 16-9l3-5 2-4c8-11 4-33-7-45l-4-5-1-1-4-3c-3-3-5-4-11-6l-6-3c-11-4-36-6-48-4m197 144c-3 14-15 23-31 23l-12 2-11 2c-5 0-13 3-18 6l-4 2-2 2-3 2c-6 3-1 5 20 10a550 550 0 0 1 70 23c10 5 21-19 16-34l-2-14c-1-17-10-30-18-30-4 0-4 0-5 6m662 23-5 17a128 128 0 0 1-8 30l-2 7a344 344 0 0 0-6 12l-4 7-9 14-8 13-2 3-2 3c2 13 36-30 43-54l2-5 1-4 1-5 3-10a1686 1686 0 0 1 3-31c-2-2-5-1-7 3m-1313 2c-21 3-22 25-3 35 7 3 9 3 21-3 7-3 9-16 4-22l-12-9c-4-2-5-2-10-1m505 22a2459 2459 0 0 1-44 6l-6 2a111 111 0 0 0-23 9 219 219 0 0 0-49 29c-14 9-14 12-1 22 8 6 8 6 11 4l3-2 6-3c22-15 50-10 63 11 5 7 6 17 4 29-1 9-1 10 19 14s28 3 26-1l-1-8-1-4-1-3-3-6-2-6c0-3-11-17-23-29-10-9-9-15 1-8l7 4a88 88 0 0 1 31 41l6 23 4 19 1 15c0 41 8 60 27 66 4 1 7 6 9 14l2 8c2 5 1 17-1 22-3 8 0 10 6 6l8-5 8-5 4-3c4 0 24-24 31-39a81 81 0 0 0 1-74 135 135 0 0 0-9-21l-6-8-6-9a236 236 0 0 0-56-50c-14-10 0-9 17 1l6 3 11 8 7 6 10 9 3 3c2 0 19 21 23 29l8 13c3 3 5 8 5 9l2 2 5 4 5 4 5 2c12 8 32 7 40-1 10-11 7-24-9-40-13-13-6-17 8-5 2 2 5 5 7 5 6 4 12 14 13 27l3 13 5 10c3 10 8 14 14 11l6-4c3-1 7-7 6-10l1-3c1-4 1-16-1-21l-2-6-2-3-2-4-12-18-5-8-15-17-12-12-19-17a342 342 0 0 0-177-50m-529 31c-23 7-28 17-18 33l6 8c7 12 14 17 16 12l1-2 1-2 2-3 2-3 3-5 3-6 3-12c3-9 3-9 0-13-6-10-9-11-19-7m1246 9c-2 1-7 12-7 16l-7 17-1 5-2 7c-4 7 1 10 6 4a77 77 0 0 0 12-26c6-13 5-27-1-23m100 115c-10 3-25 26-20 30l1 5c0 6 12 17 19 17l17-2c5 0 16-8 16-11l2-5c2-4 3-13 2-14l-1-4c1-2 1-4-1-5l-5-7c-4-4-7-5-18-6l-12 2m-1455 9c-20 10-13 36 9 29 8-2 13-8 13-16 0-14-10-20-22-13m969 53a347 347 0 0 1-3 24l-2 1c-2 5-18 4-26-1l-6-1-8-4a51 51 0 0 0-48-4c-4 2-7 2-12 2-6 0-7 1-11 4a168 168 0 0 1-48 30l-9 5-6 3-6 2-8 4-3 1-16 5-8 2-10 2-8 2c-3 2-24 4-42 4-38 1-45 0-47-2l-4-1-23-4-8-2-5-1c-1-1-4-3-8-3l-7-3-3-1-7-3-7-4-4-2-15-8a84 84 0 0 1-19-12l-5-4-3-3c-1 0-5-3-9-9-1-2-2-2-22-2l-20 1 12 12a196 196 0 0 0 60 42 355 355 0 0 0 50 19c22 5 34 7 56 9 18 2 63 2 77 1a221 221 0 0 0 90-25l2-1 8-4a5188 5188 0 0 0 20-13l5-3 7-6 22-19c5-4 7-6 9-6l31 7c79 18 80 18 83 13 3-6-2-18-8-18-2 0-20-19-22-24-5-8-6-8-6-2m-383 5c6 10 19 11 33 4 5-2 6-2-15-5l-18-3c-3 0-3 0 0 4" fill="#fff" fill-rule="evenodd"/><path d="M0 965v965h1931V0H0v965m0 1a1116577 1116577 0 0 0 0 0m1114-722c0 10 40 29 76 36a452 452 0 0 1 81 22c20 5 32 10 43 18 7 6 7 6 21 7 21 3 49 12 53 17l26 23-2 2c-6 7-7 23-1 24l29 5c26 1 55 13 71 29a125 125 0 0 1 17 20l3 6 2 4 2 4 3 8 3 7 2 10a210 210 0 0 1 5 30l1 26a342 342 0 0 1-23 113 396 396 0 0 1-41 79c-4 6-15 15-20 15-5-1-4-6 9-26a193 193 0 0 0 14-26 223 223 0 0 1 11-24l4-8 8-21 3-7a210 210 0 0 0 6-136 67 67 0 0 0-45-48c-12-5-42-9-43-6-1 1 22 23 25 23s15 14 20 24c5 9 9 24 8 31s-7 21-10 25l-1 5-5 9c-6 11-6 13-7 44a162 162 0 0 1-3 45l-1 5-3 13-2 11-5 13-8 17-5 9-4 8-2 4-2 3-4 7-3 6-2 4-2 5-3 4-2 3-2 5-3 4-2 3-3 4-2 2-6 8a70 70 0 0 1-18 19c0 2-9 14-11 15a442 442 0 0 0-37 34l-7 6-9 7-5 4-6 5-6 5-7 5-11 9c-5 4-16 12-18 12l-3 3-3 2-14 10-10 6-6 4-8 5-13 8-4 2-3 2-4 2-4 2-9 5-8 4-4 2-2 1-3 2-8 4-7 4-6 2-17 9-7 4-7 3-5 2-4 2-5 1c-21 11-20 10-19 14 2 9 5 13 10 10l9-3 7-3 10-5 5-2 4-1 9-4 14-5 10-4 5-2 6-3 12-4 18-8 4-1 3-2 6-3 10-5 7-3 3-1 4-3 11-7a249 249 0 0 1 19-12l4-3 3-2 11-8a207 207 0 0 0 32-24 167 167 0 0 0 27-24l10-9a246 246 0 0 1 29-25l6-5a816 816 0 0 1 42-35 348 348 0 0 0 35-32 1208 1208 0 0 0 57-63 503 503 0 0 1 19-28l8-14a169 169 0 0 0 16-34l1-3 1-5a394 394 0 0 1 5-24 16929 16929 0 0 0 4-54 542 542 0 0 0-4-99 138 138 0 0 0-11-69l-2-7a1009 1009 0 0 0-20-29c-4-8-32-36-43-44-20-13-29-16-46-16-13-1-17-2-32-8-10-5-14-6-18-7a387 387 0 0 1-33-7l-14-2-13-1h-17a934 934 0 0 0-55-3l-13-1c-9-1-16-2-37-8-14-3-30-5-49-5a243 243 0 0 1-37-3l-11-1h-2m550 6-3 1h-6l-9 1a176 176 0 0 0-37 9l-15 8-5 3-16 17-2 3c-1 3-4 11-4 17a2625 2625 0 0 1-1 17l2 10 4 15 14 26c2 3 8 14 7 15l2 3 1 4 2 4c4 11 6 26 4 43a940 940 0 0 0-6 46 284 284 0 0 0-5 33l-4 19-2 20a417 417 0 0 1-2 32c2 2 6-4 5-7 0-2 0-3 2-4l2-5 1-3 3-4 1-5 1-4 1-4 2-3 1-4 2-4 4-17 2-6a273 273 0 0 1 8-35 268 268 0 0 1 7-38l2-9 1-6 1-9c1-7-2-24-5-30l-12-19c-5-6-9-13-9-18 0-7 17-16 21-10 10 14 42 14 48 0 8-19-33-30-49-14-3 3-9 4-13 2-3 0-7-10-7-12v-6c-1-4 3-15 8-20l1-3c0-2 11-12 14-14a578 578 0 0 0 24-12l5-1c3-3 17-4 29-4l13-1c1-5-16-16-24-17l-6-1-3 1m-903 3a605 605 0 0 0-103 13c-17 3-68 2-160-3-114-6-157-7-158-6l-1 18c1 27 3 30 28 42 78 39 106 70 122 133 10 37 10 30 10 514 0 501 0 468-15 516-18 54-57 81-151 105-30 7-30 8-30 35v18h586l-1-16c0-31 3-29-56-44-142-35-152-60-152-356-1-155 0-157 20-158 28-2 75-3 118-3h47l30 46c41 62 86 132 109 170 232 368 302 442 455 480 81 20 226 11 237-14 9-23 1-31-48-42-90-22-144-54-212-126-65-69-113-131-249-326a16304 16304 0 0 0-136-192c-11-15-28-43-30-50 0-3 8-11 32-31 74-60 114-102 150-155 34-52 58-112 66-164 6-39 3-148-5-173-26-85-82-149-169-193-37-18-81-33-111-37-14-1-192-3-223-1m-499 16c-15 8-12 31 5 37 18 6 28-8 20-26-4-10-18-16-25-11m1096 27a530 530 0 0 1 25 11 455 455 0 0 1 76 30l22 18 8 7 8 7 5 6a318 318 0 0 1 50 57c3 0 2-18-2-23l-2-4a249 249 0 0 0-62-62l-7-6-2-2-3-2c-7-6-34-19-47-22l-27-8c-19-5-42-9-42-7m-663 36-8 2c-8 0-13 540-5 597 5 37 150 59 267 40 39-6 109-94 133-167 56-170 12-320-117-403a558 558 0 0 0-270-69m-392 3c-16 4-29 23-21 30l1 3c0 3 7 13 15 21 13 13 13 14 11 32-1 4-1 7 2 19a378 378 0 0 1 6 37 251 251 0 0 0 6 54 704 704 0 0 0 2 23l3 54a179 179 0 0 0 8 41 227 227 0 0 1 8 24l3 7 2 6a84 84 0 0 1 8 17l3 6c2 3 4 7 11 14l4 5c2 3 4 4 5 2l-1-6-4-10c0-2-1-5-3-7-1-1-2-3-1-4l-2-7c-13-27-20-65-15-78l3-14a307 307 0 0 1 44-84l6-11c12-25 16-46 10-59-13-29-28-44-61-63-29-17-41-30-41-46 0-6-4-8-12-6m977 22c-9 2-21 8-16 10l2 2 3 1c8 0 19 12 24 24l4 9 4 11 3 6 2 7 7 24a238 238 0 0 1 10 34c3 11 3 22 1 33l-1 34v37a515 515 0 0 1-15 86 42828 42828 0 0 1-28 120c-2 5-2 11 1 11l2-2c0-2 4-9 6-10l3-4a1888 1888 0 0 1 28-55c35-81 47-125 46-169a383 383 0 0 0-7-76c3-6 11 30 14 60 3 37-1 66-19 119a486 486 0 0 1-25 66c-2 7-12 27-23 49-17 34-16 31-14 35 1 5 3 5 6 1l5-8a399 399 0 0 0 22-32l7-11c16-20 39-67 64-126 13-30 14-35 14-54a316 316 0 0 0-17-106l-4-13-5-11a16386 16386 0 0 1-20-39l-5-8c-2-5-12-18-21-27a80 80 0 0 0-51-28h-7m-551 42c-12 3-20 24-12 32 12 12 25 8 30-11 2-10-1-16-9-21h-9m144 3c-1 2-12 7-17 9-2 0-10 7-10 9l-1 2c-7 7-7 29-1 38l3 4 3 4 2 4 3 5c7 10 20 37 22 46 2 4 3 4 4 1l7-14c2-5 14-17 16-18 4-1 13-7 14-10 4-10-11-43-28-63l-6-11c-5-8-9-10-11-6m-533 1 3 3c23 23 31 53 22 80a322 322 0 0 0-9 28l-4 10-2 7-1 3-3 11c-2 23-1 40 3 30l3-8 5-18a94 94 0 0 1 6-21l1-5 2-4 1-5 1-2 1-4 2-4 1-4 2-7 4-13c3-27 3-32-4-44-8-16-34-41-34-33m28 5 6 7c23 22 28 47 17 75a1326 1326 0 0 0-29 81l9-14 5-11 5-10 8-18a204 204 0 0 0 13-31c6-23 5-38-6-55-8-12-28-30-28-24m405 16c-4 3 8 26 15 30 7 3 7 13 0 13-4 0-4 6 2 24 6 16 15 28 37 52a222 222 0 0 1 22 27c1-1-1-14-2-15l-3-8c-4-11-10-23-16-32-9-12-8-15 1-6 11 11 20 32 30 64a369 369 0 0 1 15 89c1 23 1 80-1 81-2 0-3-1-4-14l-4-16-4-12-5-16c-3-10-3-12-4-24a186 186 0 0 0-30-100c0-3-18-24-26-29-7-6-8-5-8 2 1 15 0 16-7 8-3-5-14-12-18-12l-3-1-2-1-8 2-8 2-5 2-1 1-3 2c-5 2-16 13-20 19l-3 4-2 4-3 4c-7 5-4 16 3 16h8l5 3 4 4 3 4 1 2 1 2c2 0 5 9 7 17 0 3-5 7-7 5-6-6-4 13 2 27l3 6c0 6 35 35 42 35l3 1 7 2a65 65 0 0 1 12 1h7c15-1 18-3 9-9-6-3-9-5-17-6l-7-2-6-2c-8-2-23-12-23-15 0-2 8-1 12 1 5 3 14 6 26 8s16 4 26 13c12 10 26 33 30 52l3 13 1 28c0 20 0 24-4 39a385 385 0 0 0-7 26l-1 4c-4 8-5 10-5 13l-3 8-3 6-2 5-5 13-19 48c-3 5-3 5 3 9 5 3 17 3 20-1a153 153 0 0 0 13-30l5-10 2-5 6-18a243 243 0 0 1 9-25l2-6 3-8a393 393 0 0 1 17-46l5-13 4-10a44975 44975 0 0 1 29-56l8-12c10-16 19-23 40-30l17-7c9-5 10-5 10-2 0 4-10 12-19 16a402 402 0 0 0-25 12c-4 2-10 9-9 9h3l12-2 13-2 9-2 7-3 6-3 3-2 9-6 12-10 7-8c9-10 17-23 20-34 2-8 0-8-12-1-9 6-9-1 0-11 6-5 14-19 14-23l3-6c10-16 10-15-11-15h-11a50 50 0 0 0-32 8c-8 6-12 2-6-7 8-17-27-10-47 9a90 90 0 0 0-25 46l-2 9-4 24a283 283 0 0 1-30 94c0 2-4 6-5 6s-2-1-1-4a408 408 0 0 0 10-79 787 787 0 0 1 3-64c3-30 14-57 30-70 8-5 12-3 6 4-13 15-27 45-21 45a637 637 0 0 0 44-44c10-9 11-9 13-14 3-7 2-15-3-19-3-3-1-5 3-4 5 1 8 3 15 10 15 14 17-11 2-26-27-26-81-6-96 37-6 17-6 23-4 64 0 21 0 29-3 29-2 0-6-38-7-64 0-29-3-43-14-62-11-23-9-19-31-50-12-16-32-30-43-28h-5c-7-2-9-2-9-1m105 11-1 7c1 7 3 7 4-1s-1-12-3-6m-431 60a111 111 0 0 0-27 39 294 294 0 0 0-24 52l-2 7a1026 1026 0 0 1-7 27 293 293 0 0 0 22 133l3 8 3 8 4 8 5 9 4 7 4 6c3 6 5 2 3-6l-3-16c-2-2-4-21-4-36 0-7-1-12-2-13-2-2-1-26 1-35 4-20 5-36 3-41l-2-6c0-8-1-15-3-17-5-10-4-25 2-36l7-15c7-13 8-23 7-45-1-8 0-10 2-15l2-7c0-2 4-12 6-14 2-3 0-5-4-2m1234 16-2 1-3 1-4 1c-8 0-22 9-32 20-7 6-9 10-17 22l-11 25-5 10-3 5-1 3a258 258 0 0 1-16 31l-5 11-2 3-3 4a177 177 0 0 1-6 12l-3 5-3 6-2 4-4 7-4 7-5 8-5 7-3 5-4 6-4 6-1 2-3 4c-6 11-11 17-30 37-15 16-21 22-19 23 3 2 6 1 11-3l11-8a283 283 0 0 0 62-66l6-7a2469 2469 0 0 0 47-49c14-18 19-29 21-44a8016 8016 0 0 1 4-33l3-8 5-9 5-9c4-7 23-25 31-29 10-5 9-12-2-12l-4 1m-282 78-3 10a274 274 0 0 1-18 58l-25 49c-8 15-10 21-8 21a382 382 0 0 0 45-82c5-13 14-49 13-55-1-2-3-3-4-1m-626 8c0 2 3 7 6 10l7 8 7 9 15 20c10 14 15 12 7-3-6-12-9-16-19-26-17-17-23-22-23-18m-521 14c-20 13-25 33-16 65l6 21c-2 2 1 27 3 33 8 22 21 37 41 46 11 5 13 7 28 25a124 124 0 0 0 28 27l16 8 16 6 13 5 6 3 6 2h3c3 3 3-1 1-5l-5-8-12-16-5-9-3-3-2-2c0-3-5-11-9-16l-4-6-8-14-3-5-3-5-4-5-2-3-5-4a129 129 0 0 0-32-24c-1-1-3-3-5-3-7-3-8-8-2-7a488 488 0 0 0 12 4l5 3c19 10 20 11 33 25a170 170 0 0 1 30 39l5 7 5 9a228 228 0 0 0 19 28l11 14 1 3c1 2 11 10 14 11 5 1 5-7 0-16l-3-7-13-21a223 223 0 0 1-12-19 255 255 0 0 0-29-44l-3-5-5-7c-2-4-7-9-10-12l-5-6a226 226 0 0 0-33-29c-5-4-10-7-13-7l-6-2-12-5-4-3-6-4c-6-3-20-18-20-21l-1-3c-2-1-5-13-5-15v-7l1-6 4-8c4-5 0-7-7-2m740 14c-14 3-48 38-43 43 1 1 6-2 11-8l32-30c9-5 8-7 0-5m330 62a253 253 0 0 0-20 54c-2 7-2 9 0 8 4-2 15-30 20-49 4-17 4-17 0-13m-559 39c-9 2-22 11-26 17-9 10-10 13-14 21-6 14-7 16-8 25a91 91 0 0 0 0 38c2 9 12 32 20 45a569 569 0 0 0 29 42 266 266 0 0 0 12 23c0 3 3 4 9 4h6a342 342 0 0 0-33-70c-5-9-7-15-10-27-4-14 1-40 10-50 15-18 42-12 47 10 1 8 18 3 18-6l1-4c6-14 0-41-12-53-18-16-30-20-49-15m209 7c-25 3-42 21-46 46a46 46 0 0 0 4 23c0 3 14 19 15 17l2-5c5-18 29-30 41-20l3 1c2 0 9 8 9 10l1 3c6 6 3 36-5 44l-3 5a43 43 0 0 1-23 18l-2 1-14 4-11 2-3 1-10 2-2 1a214 214 0 0 0-33 17c-7 4-21 19-31 31-12 14 4 17 21 3a132 132 0 0 1 33-19l8-4 3-1 4-1 9-4a552 552 0 0 0 45-18c14-7 31-23 39-39 8-15 11-48 6-65-4-15-6-19-11-26l-3-6c-4-7-22-18-31-21h-15m624 27c-15 2-24 13-23 25 1 13 7 25 14 25l4 2c7 5 26 0 33-8 16-20-2-49-28-44m-46 24-5 1-7 2-9 4a290 290 0 0 1-37 14l-8 2a303 303 0 0 0-81 48c-6 4-17 15-17 17l-1 3c-7 5 13 2 21-4l6-2c2 0 4-1 12-7l8-4 8-4 8-5 6-3 14-8 21-12a170 170 0 0 1 36-15l19-7c13 0 28-14 22-20h-16m-780 11c-3 2-8 11-8 15 0 13 14 19 23 11 13-12 0-35-15-26m198 7c-14 7-9 31 7 31 9 0 14-5 14-15 0-15-9-22-21-16m-578 70-15 1c-17 1-21 2-32 5-18 5-49 26-49 33l-3 3-2 3-3 6-3 5-6 2c-34 7-33 56 1 55 23-1 37-36 18-46-2-2 1-9 5-9l7-7c7-7 12-10 19-13l9-3c16-8 45-13 62-11l18 1 14 1c6 2 9 1 8-4v-8c0-6-2-9-6-9l-12-3c-17-3-24-3-30-2m1057 10-11 1-13 2h-3l-12 3-9 2-8 3-10 2-17 6-3 1a137 137 0 0 0-35 26 1355 1355 0 0 1-24 25c-6 9-15 17-22 23l-11 8-7 7-3 2-3 1c-1 0-3 1-4 6-1 1 3 1 15 1 8 0 18 1 21 3s13 0 26-6l6-2c2 0 9-3 14-7 2-2 6-4 9-4l8-4 4-2 6-2 6-3 7-3 7-3 7-2 7-2 15-5 9-3 7-2 7-2a763 763 0 0 0 40-9c7-4 57-6 61-3 5 3 0 7-10 8a234 234 0 0 0-41 5 387 387 0 0 0-52 15 375 375 0 0 0-63 23c-10 3-5 8 5 6l10-1a205 205 0 0 0 69-17 20512 20512 0 0 1 46-14l11-2a174 174 0 0 1 69 6c6 1 11 3 14 6l7 5c4 2 9 7 12 11l5 6c6 7 9 14 10 24l1 5 1 5c0 12 12 21 14 11l2-5 1-5 1-6c3-8-3-37-10-53l-2-5-1-3c-2-1-7-8-7-10s-21-23-28-28a158 158 0 0 0-49-25l-6-3-5-1-5-2-9-3a853 853 0 0 1-35-7 198 198 0 0 0-42-4m-37 39-16 4a249 249 0 0 0-91 60c3 2 3 2 18-7l7-3 8-5 7-4 3-2 7-4 10-6 5-3 6-3 6-3 2-3 3-1 16-7 19-9c3 0 9-3 9-4 0-4-6-4-19 0m-978 34-7 3-4 2-20 20c0 4-16 16-24 18a63 63 0 0 0-21 10c-3 0-25 23-25 26l-3 4-3 4-2 4-4 8-4 9-5 15c0 5-18 25-23 25l-10 9-7 9c-4 6-6 8-6 11l-2 11a163 163 0 0 0-5 35c-2 7 2 85 5 92 1 3 4-1 5-10a429 429 0 0 1 25-86l2-4 5-11 4-10 2-2 4-7a55 55 0 0 1 7-11 417 417 0 0 1 53-70c9-12 19-18 18-10l-3 6a181 181 0 0 0-22 27 161 161 0 0 0-15 21 182 182 0 0 0-12 20l-4 6-3 4-9 14-2 3-13 27-5 12-2 5-2 4-2 6-3 9-3 8-3 12-1 5a305 305 0 0 0-11 104 954 954 0 0 1-2 64 239 239 0 0 1-10 32 157 157 0 0 0-9 35c-2 2 0 23 2 24v1c0 2 10 15 15 18l19 19c0 4-12 8-27 8h-24c-19 0-21 1-22 10l-1 8c-1 2-2 2 17 2a261 261 0 0 0 63-4 389 389 0 0 1 29-4l9-1c13-2 10-13-7-21l-9-6-6-5-2-1-5-5-9-7-5-7c-10-10-14-32-9-46l2-7c0-5 2-9 5-12l2-6 3-4 4-7c1-4 3-6 4-7l1-2c0-2 7-13 10-17l2-2a209 209 0 0 1 35-31c5-5 12-8 20-11l23-5c10-2 24 0 33 4l8 3c2 0 14 8 18 12s4 4 4-5l1-9c5-9-22-24-44-26a109 109 0 0 0-68 24 221 221 0 0 0-35 38c0 3-7 9-10 9l-2-1 4-8 3-6 4-8 2-4 4-5 7-10c3-5 21-23 25-25l8-5c3-2 8-3 10-3l9-3c17-8 58-7 74 3 7 5 7 4 9-5 2-15-5-20-34-22-24-2-34 0-52 7a135 135 0 0 0-68 61l-3 7-5 9c-2 2-4 0-4-3l-1-5a248 248 0 0 1 25-151 83 83 0 0 1 13-20l3-4 5-7 11-12a67 67 0 0 0 9-11l5-5 10-10a201 201 0 0 0 31-42l3-5c7-13 13-17 13-8l-9 20a413 413 0 0 0-11 19l-2 2a5645 5645 0 0 0-57 68l-5 8-4 6a229 229 0 0 1-9 16l-2 5-7 15-3 7c-3 6-7 22-9 32l-1 7c-3 6 0 13 3 9l2-4c0-2 6-17 8-19l2-6 3-8 15-31a289 289 0 0 1 64-80 132 132 0 0 0 34-57c7-4 13-59 9-86l-1-13a993 993 0 0 1 2-29l5-15c3-6 1-7-10-5m1078 46c-21 7-27 32-11 42l6 5 7 3 4 1c0 2 11 1 14-1l6-3c3-1 4-3 5-7l3-6 2-5v-4c2-5-1-13-7-18-5-6-4-6-22-8-1-1-5 0-7 1m-299 10a425 425 0 0 0-59 8l-5 2-23 9-14 6c-13 3-19 9-14 13 3 4 6 4 24-1l11-2 8-3 7-2 6-1 4-1 6-2a223 223 0 0 1 108 2l8 3 2 1a246 246 0 0 1 48 25c2 0 15 11 19 17l6 8c6 6 14 18 18 27l4 8c3 4 6 12 9 23l6 13 2 5 2 6 2 7 3 6 1 5 2 3 1 3 2 4 1 5 1 4 1 6 2 6 1 3 1 6 2 6 3 10 2 11 1 7 4 25 1 11c4 13 3 35-1 38-5 4-7-1-8-17a101 101 0 0 0-6-30v-4l-2-4v-4l-2-6c0-8-2-14-3-15l-1-6-2-6-2-13c-1-4-3-11-5-13l-1-6-1-4-1-4-2-5-4-12-8-20-2-6-3-8-5-10-2-5-3-5a123 123 0 0 0-14-25c0-2-4-7-8-12l-7-10-4-3c-17-11-18-12-24-7a96 96 0 0 0-24 28c-4 6-12 23-11 25l-1 5c-9 19-8 73 1 67 10-6 16-5 15 4a83 83 0 0 0 1 39 164 164 0 0 0 21 40c2 4 5 2 11-4 2-3 7-2 8 1 1 5 8 18 13 23l6 7 5 5 6 4 5 3 5 4 8 5 9 8 7 8 4 4c0 1 2 4 5 6l7 11 7 11 5 7 2 5 6 13 1 6 3 10c1 8 3 14 5 14 1 0 13-13 14-17l3-5 7-16 2-4c2-2 5-13 5-16l3-7 3-11 2-9 3-12a675 675 0 0 1 15-84l2-11 1-16c1-21 0-26-3-36-3-9 4-11 15-6 7 3 12 4 10 1l-1-6a368 368 0 0 0-37-87l-5-7-10-11-4-4-5-4c0-2-11-12-17-15l-7-4c-6-5-19-9-33-12h-21l-8 1c-6 1-7 3-4 6 2 2 1 4-2 2l-3-1-4-2-4-2-7-4a208 208 0 0 0-76-26l-15-2-7-1c-5-1-21-2-35-1m-20 33-7 3c-5 2-10 8-11 11l-1 5c-2 3 0 12 2 15l2 3c0 2 8 10 10 10l4 2h8l4-1c4 0 10-2 10-4l2-4c2-1 3-5 3-7l2-6c2-1 2-13 0-14l-3-4c0-2-2-3-2-3l-4-2c-3-2-5-3-13-4h-6m-429 43-5 5a355 355 0 0 0-8 16l-4 6-7 17-5 10c-4 5-6 10-6 11l-4 8-6 15-5 10c-7 8-6 6-6 69l1 30 8-16 11-22c6-9 22-27 30-33a158 158 0 0 1 27-16 111 111 0 0 1 106 10l7 4 9 8c12 10 30 38 30 45l1 3c5 4 7 34 4 47l-2 11c-2 7-6 18-9 22-2 3-18 15-22 18l-20 7-6 2-9 1a172 172 0 0 0-22 2 231 231 0 0 0-61 12 147 147 0 0 0-32 15c-12 6-35 28-35 33l2 7 3 11c2 7 1 8 11-2 13-12 19-17 34-24a67 67 0 0 1 20-8l19-6 5-1 4-1a176 176 0 0 0 35-5 220 220 0 0 0 69-15l8-5a92 92 0 0 0 26-31c3-6 5-11 5-14l2-9c2-7 3-27 1-29l-1-10a104 104 0 0 0-12-42c-3-12-21-37-35-49a10778 10778 0 0 1-31-25l-3-1-3-2-9-4a131 131 0 0 0-84-8l-7 1a63 63 0 0 1-20 4c-4 1-8-5-4-7l1-3 1-5 3-6 4-10 3-7 3-5 2-5 3-5 2-6 2-3 3-5 4-8c3-3 3-7 1-9-4-2-22-1-27 2m54-2-4 1c-2 0-6 4-11 12a593 593 0 0 1-19 34l-1 4-2 5-7 14c3 3 23-8 23-13a198 198 0 0 1 35-54c0-2-11-5-14-3m747 4-4 1c-2 0-11 9-11 10l-2 3c-20 17 10 55 34 43 12-7 15-13 14-37 0-13-5-18-19-21-9-1-9-1-12 1M412 1220a86 86 0 0 0-31 10l-5 3-4 2-3 2a136 136 0 0 0-43 42 80 80 0 0 0-12 24l-3 10-5 11c-5 12-2 14 7 3 12-15 36-35 42-35l4-2c11-5 18-7 37-9a189 189 0 0 1 52 1c6 3 7-3 5-46v-9c0-7-23-10-41-7m1153 2c-17 2-18 7-1 18 5 4 14 13 14 15l2 3 3 9a38 38 0 0 0 3 10l3 10 1 4 2 7 1 12c1 14-1 37-3 43l-7 7c-2 2-6 6-6 8l-4 8c-4 5-7 14-7 22a148 148 0 0 0 4 47l3 14c3 14 3 38-2 60a1236 1236 0 0 0-6 26c0 3-2 9-7 16l-4 9-2 7c-3 3-5 9-5 12 1 6 4 6 6 1l2-3 3-2a373 373 0 0 1 17-16s2-1 2-3l6-7 5-5 9-14 7-10 11-20c16-27 24-78 23-141v-19c-2-6 1-15 4-13a265 265 0 0 1 6 113l-1 4a917 917 0 0 0-12 49l-10 20-3 6-9 16a7686 7686 0 0 0-25 32 292 292 0 0 1-20 23l-3 4c-9 8 1 16 10 9l6-5 11-9a202 202 0 0 1 28-21l11-10a244 244 0 0 0 68-90c2-6 5-15 7-32 3-21 3-35 2-45l-2-16-2-12-4-12-2-9-1-4-1-3-1-3-4-13-4-10a45 45 0 0 0-6-13l-3-5-3-5c0-2-10-15-18-25l-10-12-5-5-5-5-5-4-9-6c-7-6-13-8-37-15-6-2-15-3-21-2m-116 8-1 13a1880 1880 0 0 1-2 82c-6 41-7 50-3 51 3 0 8-8 8-12l1-5 2-7a7691 7691 0 0 1 6-33c4-4 4-58 0-74-4-14-4-15-6-16s-3-1-5 1m-619 22-10 1-8 2-20 7c-7 2-20 8-33 16l-16 12-5 4c-5 3-7 6-10 10l-7 8c-10 11-11 14-10 26a278 278 0 0 1 2 34 202 202 0 0 1 52-56 235 235 0 0 1 57-28c9-3 36-4 46-2 9 3 18 10 11 10-8 0-20 19-16 27l2 5c3 7 11 12 18 10h4l3-1c10-4 13-6 16-9l3-5 2-4c8-11 4-33-7-45l-4-5-1-1-4-3c-3-3-5-4-11-6l-6-3c-11-4-36-6-48-4m197 144c-3 14-15 23-31 23l-12 2-11 2c-5 0-13 3-18 6l-4 2-2 2-3 2c-6 3-1 5 20 10a550 550 0 0 1 70 23c10 5 21-19 16-34l-2-14c-1-17-10-30-18-30-4 0-4 0-5 6m662 23-5 17a128 128 0 0 1-8 30l-2 7a344 344 0 0 0-6 12l-4 7-9 14-8 13-2 3-2 3c2 13 36-30 43-54l2-5 1-4 1-5 3-10a1686 1686 0 0 1 3-31c-2-2-5-1-7 3m-1313 2c-21 3-22 25-3 35 7 3 9 3 21-3 7-3 9-16 4-22l-12-9c-4-2-5-2-10-1m505 22a2459 2459 0 0 1-44 6l-6 2a111 111 0 0 0-23 9 219 219 0 0 0-49 29c-14 9-14 12-1 22 8 6 8 6 11 4l3-2 6-3c22-15 50-10 63 11 5 7 6 17 4 29-1 9-1 10 19 14s28 3 26-1l-1-8-1-4-1-3-3-6-2-6c0-3-11-17-23-29-10-9-9-15 1-8l7 4a88 88 0 0 1 31 41l6 23 4 19 1 15c0 41 8 60 27 66 4 1 7 6 9 14l2 8c2 5 1 17-1 22-3 8 0 10 6 6l8-5 8-5 4-3c4 0 24-24 31-39a81 81 0 0 0 1-74 135 135 0 0 0-9-21l-6-8-6-9a236 236 0 0 0-56-50c-14-10 0-9 17 1l6 3 11 8 7 6 10 9 3 3c2 0 19 21 23 29l8 13c3 3 5 8 5 9l2 2 5 4 5 4 5 2c12 8 32 7 40-1 10-11 7-24-9-40-13-13-6-17 8-5 2 2 5 5 7 5 6 4 12 14 13 27l3 13 5 10c3 10 8 14 14 11l6-4c3-1 7-7 6-10l1-3c1-4 1-16-1-21l-2-6-2-3-2-4-12-18-5-8-15-17-12-12-19-17a342 342 0 0 0-177-50m-529 31c-23 7-28 17-18 33l6 8c7 12 14 17 16 12l1-2 1-2 2-3 2-3 3-5 3-6 3-12c3-9 3-9 0-13-6-10-9-11-19-7m1246 9c-2 1-7 12-7 16l-7 17-1 5-2 7c-4 7 1 10 6 4a77 77 0 0 0 12-26c6-13 5-27-1-23m100 115c-10 3-25 26-20 30l1 5c0 6 12 17 19 17l17-2c5 0 16-8 16-11l2-5c2-4 3-13 2-14l-1-4c1-2 1-4-1-5l-5-7c-4-4-7-5-18-6l-12 2m-1455 9c-20 10-13 36 9 29 8-2 13-8 13-16 0-14-10-20-22-13m969 53a347 347 0 0 1-3 24l-2 1c-2 5-18 4-26-1l-6-1-8-4a51 51 0 0 0-48-4c-4 2-7 2-12 2-6 0-7 1-11 4a168 168 0 0 1-48 30l-9 5-6 3-6 2-8 4-3 1-16 5-8 2-10 2-8 2c-3 2-24 4-42 4-38 1-45 0-47-2l-4-1-23-4-8-2-5-1c-1-1-4-3-8-3l-7-3-3-1-7-3-7-4-4-2-15-8a84 84 0 0 1-19-12l-5-4-3-3c-1 0-5-3-9-9-1-2-2-2-22-2l-20 1 12 12a196 196 0 0 0 60 42 355 355 0 0 0 50 19c22 5 34 7 56 9 18 2 63 2 77 1a221 221 0 0 0 90-25l2-1 8-4a5188 5188 0 0 0 20-13l5-3 7-6 22-19c5-4 7-6 9-6l31 7c79 18 80 18 83 13 3-6-2-18-8-18-2 0-20-19-22-24-5-8-6-8-6-2m-383 5c6 10 19 11 33 4 5-2 6-2-15-5l-18-3c-3 0-3 0 0 4" fill="#880D14" fill-rule="evenodd"/></svg>
