<svg version="1.0" xmlns="http://www.w3.org/2000/svg" width="533.3" height="533.3" viewBox="0 0 400 400"><path d="M286 2c-10 1-22 6-31 11-8 5-23 17-25 20-2 4 4 22 13 38 10 16 21 30 38 48 18 18 32 28 48 38 16 9 34 15 38 13A97 97 0 0 0 286 1zM208 74a96 96 0 0 0 95 120c9 0 28-3 30-4l-9-6c-22-12-41-26-62-47a253 253 0 0 1-52-70l-2 7z"/><path d="m119 208-68 82a44 44 0 0 0 63 56c6-4 154-129 153-130l-10-4c-31-13-56-38-69-69l-4-10-65 75zm66 8 9 9-19 19-19 19-9-10-9-9 18-18 19-19 10 9zM16 366 0 382l9 9 10 9 15-16 16-16-9-9-9-9-16 16z"/></svg>