<?xml version="1.0" encoding="utf-8"?>
<!-- Generator: Adobe Illustrator 21.0.0, SVG Export Plug-In . SVG Version: 6.00 Build 0)  -->
<svg version="1.1" id="Layer_1" xmlns="http://www.w3.org/2000/svg" xmlns:xlink="http://www.w3.org/1999/xlink" x="0px" y="0px"
	 viewBox="0 0 29 28" style="enable-background:new 0 0 29 28;" xml:space="preserve">
<style type="text/css">
	.st0{fill:#9A3433;}
</style>
<title>search</title>
<desc>Created with Sketch.</desc>
<g id="Symbols">
	<g id="Header" transform="translate(-1257.000000, -71.000000)">
		<g id="search">
			<g transform="translate(1257.000000, 71.162791)">
				<path id="Shape-Copy" class="st0" d="M20.2,17.4h-1.3L18.5,17c1.6-1.8,2.5-4.1,2.5-6.7C21,4.6,16.3,0,10.5,0S0,4.6,0,10.3
					s4.7,10.3,10.5,10.3c2.6,0,5-0.9,6.8-2.5l0.4,0.4v1.3l8.1,7.9l2.4-2.4L20.2,17.4L20.2,17.4z M10.5,17.4c-4,0-7.3-3.2-7.3-7.1
					s3.2-7.1,7.3-7.1s7.3,3.2,7.3,7.1S14.5,17.4,10.5,17.4z"/>
			</g>
		</g>
	</g>
</g>
</svg>
