<svg xmlns="http://www.w3.org/2000/svg" height="40" viewBox="0 -960 960 960" width="40"><path fill="#A62F27" d="M847.986-517.551v406.638H112.174v-405.601q-26.732-24.595-36.142-59.964-9.409-35.37 1.924-72.022l62.355-198.355h678.711L882.71-648.5q11.334 36.333 1.392 71.17t-36.116 59.779Zm-278.319-38.173q27.058 0 44.5-17.917t13.775-42.707l-23.761-154.594h-88.123V-614q0 23.536 15.322 40.906 15.323 17.37 38.287 17.37Zm-184.667 0q25.058 0 42.333-17.037 17.276-17.036 17.276-41.239v-156.942h-88.124l-23.761 154.594q-3.76 24.138 12.077 42.381T385-555.724Zm-180.667 0q21.203 0 36.692-14.935 15.49-14.935 18.25-36.486l24.348-163.797H195.5l-43.442 140.166Q143.63-604 159-579.862q15.369 24.138 45.333 24.138Zm551.334 0q29.964 0 45.793-23.805 15.83-23.804 7.149-51.247L764.5-770.942h-87.297l24.188 163.797q2.761 21.551 18.25 36.486 15.489 14.935 36.026 14.935Zm-567.74 369.058h584.146v-294.399q-.203 1.014-5.544 1.054-5.34.04-10.862.04-24.312 0-46.464-9.482-22.152-9.482-44.203-30.018-16.985 18.536-40.652 29.018T573-479.971q-28.522 0-50.768-8.562-22.246-8.561-41.899-26.938-16.145 17.203-38.898 26.351-22.754 9.149-50.435 9.149-29.775 0-53.649-10.149-23.873-10.148-41.684-29.351-23.798 20.362-46.482 29.931-22.685 9.569-44.852 9.569-5.014 0-9.703-.04-4.688-.04-6.703-1.054v294.399Zm584.146 0H187.927 772.073Z"/></svg>
