<?xml version="1.0" standalone="no"?>
<!DOCTYPE svg PUBLIC "-//W3C//DTD SVG 20010904//EN"
 "http://www.w3.org/TR/2001/REC-SVG-20010904/DTD/svg10.dtd">
<svg version="1.0" xmlns="http://www.w3.org/2000/svg"
 width="700.000000pt" height="700.000000pt" viewBox="0 0 700.000000 700.000000"
 preserveAspectRatio="xMidYMid meet">
<metadata>
Created by potrace 1.14, written by Peter Selinger 2001-2017
</metadata>
<g transform="translate(0.000000,700.000000) scale(0.100000,-0.100000)"
fill="#000000" stroke="none">
<path d="M0 3500 l0 -3500 3500 0 3500 0 0 3500 0 3500 -3500 0 -3500 0 0
-3500z m750 2980 c22 -11 45 -20 53 -20 7 0 23 -10 34 -22 70 -77 106 -256 66
-331 -10 -20 -19 -68 -23 -128 l-6 -95 -99 -204 c-97 -199 -100 -206 -102
-279 l-2 -76 9 63 c14 98 47 186 101 266 80 120 168 186 248 186 48 0 62 -13
103 -94 17 -33 46 -75 64 -92 55 -52 74 -92 74 -156 0 -75 -23 -101 -138 -156
-79 -38 -92 -48 -108 -83 -9 -22 -21 -42 -26 -45 -14 -9 -85 37 -97 63 -35 77
6 115 167 153 56 13 82 38 82 78 0 122 -211 120 -289 -4 -41 -63 -59 -152 -71
-345 -11 -186 -16 -219 -34 -219 -7 0 -27 -16 -44 -36 -59 -67 -91 -28 -123
152 -18 96 -22 161 -23 339 -1 217 -1 222 33 360 19 81 52 184 79 245 95 220
95 283 0 364 -34 29 -50 36 -85 36 -38 0 -43 3 -43 23 0 70 112 102 200 57z
m2642 3 c24 -9 93 -50 153 -92 l110 -76 118 1 c114 1 118 1 115 -20 -7 -47
-124 -88 -195 -67 -17 5 -92 43 -165 84 -159 90 -221 112 -285 103 -67 -9
-107 -35 -111 -73 -6 -60 56 -80 148 -48 81 29 160 14 208 -38 16 -17 20 -27
12 -32 -21 -13 -394 -9 -419 4 -31 17 -54 76 -46 118 8 46 60 102 120 129 62
29 172 33 237 7z m2005 6 c30 -11 73 -47 73 -61 0 -5 -36 -5 -81 -2 -97 8 -99
7 -99 -89 l0 -68 -67 -31 c-113 -52 -243 -37 -279 33 -19 37 -18 109 2 138 41
58 204 71 204 16 0 -13 -14 -18 -98 -30 -32 -5 -46 -13 -54 -31 -23 -51 23
-95 113 -108 37 -5 50 -3 71 14 22 17 27 31 33 88 3 37 10 77 16 90 17 43 105
65 166 41z m342 -15 c24 -20 31 -34 31 -60 0 -49 -24 -89 -62 -105 -42 -18
-237 -19 -293 -2 -110 34 -96 71 15 42 81 -22 114 -18 191 22 31 15 37 24 42
59 5 40 21 70 37 70 5 0 22 -12 39 -26z m-3694 -5 c33 -6 93 -24 133 -40 41
-16 79 -29 86 -29 26 0 169 -94 225 -147 l56 -53 -24 -20 c-18 -16 -38 -20
-91 -20 -62 0 -73 3 -121 37 -74 51 -204 110 -296 135 -106 28 -365 31 -462 4
-168 -46 -383 -196 -425 -296 -8 -19 -17 -61 -21 -93 -4 -31 -11 -59 -15 -62
-14 -9 -111 26 -132 47 -17 17 -20 29 -15 77 16 186 208 339 544 436 148 42
388 52 558 24z m2439 -11 c9 -12 16 -43 16 -68 0 -82 -34 -162 -47 -111 -3 12
-13 21 -24 21 -25 0 -39 30 -39 87 0 57 21 93 55 93 13 0 31 -10 39 -22z m220
-14 c9 -8 16 -21 16 -27 0 -36 -109 -157 -141 -157 -23 0 -34 19 -20 33 16 16
14 37 -4 37 -25 0 -17 28 22 71 53 59 97 74 127 43z m-1783 -4 c46 -25 63
-114 33 -171 -20 -40 -68 -59 -168 -66 l-81 -5 -130 65 c-149 76 -195 103
-195 116 0 20 30 18 81 -6 71 -33 229 -73 290 -73 62 0 84 20 94 86 4 27 9 52
12 57 6 10 41 9 64 -3z m1402 -59 c60 -67 72 -110 26 -98 -17 5 -19 1 -13 -28
5 -31 4 -33 -16 -28 -12 3 -40 23 -61 43 -41 39 -49 72 -28 113 26 48 47 48
92 -2z m432 -111 c53 -44 -66 -130 -145 -105 -21 7 -27 30 -10 40 6 3 10 15
10 26 0 10 10 29 21 40 17 17 30 20 65 16 24 -2 51 -10 59 -17z m1672 -160
c-6 -88 -35 -163 -90 -228 -45 -53 -47 -67 -8 -44 101 57 67 -164 -41 -268
-81 -80 -162 -100 -421 -109 l-199 -6 -24 -28 c-26 -30 -32 -85 -12 -105 25
-25 87 -13 180 35 89 46 91 47 202 51 92 4 114 2 125 -11 10 -13 8 -19 -13
-38 -39 -34 -32 -46 28 -59 30 -6 88 -28 128 -50 40 -21 99 -46 131 -55 l57
-17 -20 -28 c-11 -15 -45 -50 -75 -78 -67 -62 -134 -87 -204 -77 -67 9 -75 -9
-17 -35 55 -23 60 -47 16 -83 -31 -27 -92 -42 -200 -52 -161 -15 -196 -24
-244 -66 -63 -56 -87 -123 -93 -264 -6 -110 -3 -124 43 -287 13 -46 -38 -3
-222 185 -211 215 -344 370 -369 430 -14 34 -14 37 4 46 10 6 36 8 57 4 l39
-5 -91 93 c-115 119 -127 136 -165 250 -23 69 -32 114 -33 168 -1 95 9 103 91
76 32 -11 64 -21 70 -23 7 -2 -2 28 -21 68 -38 80 -43 111 -49 313 -4 113 -2
137 10 137 29 0 92 -41 126 -82 34 -41 36 -42 55 -25 35 32 58 22 88 -39 27
-54 27 -58 21 -195 -7 -155 1 -196 39 -205 53 -13 66 20 44 111 -14 56 -13
273 1 332 15 60 55 116 158 218 68 67 84 78 99 69 9 -6 18 -24 20 -40 6 -50
19 -49 69 5 48 51 49 52 138 66 50 8 152 19 227 23 132 9 141 11 220 49 l83
40 23 -46 c20 -39 22 -57 19 -121z m-2157 132 c18 -11 36 -24 38 -30 4 -14
-41 -37 -90 -46 -55 -10 -84 26 -58 75 14 25 64 25 110 1z m1158 -44 c5 -24
-46 -77 -99 -104 -78 -39 -164 -57 -241 -51 -101 9 -278 86 -278 123 0 22 29
17 100 -18 63 -31 69 -32 200 -33 148 0 168 6 254 74 41 33 59 35 64 9z m-974
-8 c32 -12 34 -38 4 -49 -13 -5 -63 -12 -113 -15 -74 -6 -105 -14 -176 -47
-88 -40 -124 -48 -117 -26 12 35 274 144 355 146 12 1 33 -3 47 -9z m268 -71
c23 -13 41 -55 33 -80 -14 -44 -103 -31 -177 25 -63 48 -68 66 -20 66 20 0 43
4 51 9 14 9 81 -3 113 -20z m-1102 -144 c400 -84 745 -350 884 -680 58 -139
66 -189 66 -453 0 -253 -7 -311 -59 -470 -103 -314 -313 -589 -684 -896 -65
-54 -121 -105 -124 -113 -9 -24 23 -77 204 -333 91 -129 267 -379 391 -555
504 -716 690 -955 933 -1191 118 -114 198 -173 319 -234 120 -60 211 -93 362
-130 66 -16 126 -34 134 -41 16 -13 19 -82 4 -109 -24 -44 -211 -74 -470 -74
-169 -1 -209 2 -299 22 -329 74 -564 214 -799 475 -168 187 -441 579 -810
1162 -83 132 -234 368 -336 525 l-184 285 -263 -3 c-145 -1 -287 -5 -315 -8
-49 -5 -52 -7 -59 -37 -12 -61 -17 -799 -6 -1007 30 -559 89 -642 544 -761 93
-24 157 -46 165 -56 6 -9 12 -45 12 -80 l0 -63 -1025 0 -1025 0 0 58 c0 76 16
98 88 117 204 57 366 126 439 189 54 47 104 147 135 268 l23 93 0 1640 c0
1344 -2 1654 -14 1715 -18 100 -63 223 -105 286 -43 65 -173 164 -307 234
-115 60 -129 78 -129 170 l0 62 128 -7 c860 -43 909 -43 1122 -10 144 22 185
23 572 24 336 1 431 -2 488 -14z m-2110 -525 c0 -12 -11 -43 -25 -70 -51 -100
-29 -167 101 -302 46 -48 84 -94 84 -103 0 -52 -102 3 -174 95 -73 92 -87 131
-87 239 0 74 10 110 41 141 27 27 60 27 60 0z m-234 -345 c69 -34 157 -129
197 -212 29 -62 32 -76 32 -168 0 -90 -3 -106 -28 -156 -33 -65 -102 -149
-123 -149 -20 0 -17 34 5 54 39 35 64 115 69 217 8 171 -37 258 -166 321 -58
29 -76 33 -147 33 -103 0 -153 -24 -246 -117 -170 -172 -207 -431 -97 -671 23
-49 28 -71 20 -79 -29 -29 -61 15 -98 137 -25 81 -28 105 -28 245 -1 140 1
160 22 210 48 112 197 282 290 329 92 47 209 49 298 6z m-40 -171 c32 -15 64
-72 64 -113 0 -18 -1 -18 -60 0 -77 24 -112 13 -140 -42 -42 -81 -16 -211 60
-303 42 -50 48 -66 28 -66 -43 0 -157 118 -214 223 -51 94 -27 216 59 293 40
36 40 36 105 30 36 -4 81 -14 98 -22z m5164 -136 c0 -60 -47 -116 -133 -158
-28 -14 -59 -37 -70 -51 -19 -26 -19 -28 3 -122 34 -148 16 -196 -79 -205 -58
-5 -68 6 -45 49 18 36 16 59 -15 141 -11 32 -21 80 -21 108 l0 50 -39 0 c-102
0 -190 -165 -162 -302 7 -30 32 -90 57 -134 51 -90 61 -119 43 -130 -17 -10
-55 37 -108 136 -49 93 -60 169 -43 304 18 137 92 208 219 211 35 1 64 4 66 6
2 2 10 16 19 30 15 24 25 27 103 34 67 5 91 12 113 29 62 52 92 53 92 4z
m-5548 5 c8 -10 37 -59 63 -109 64 -124 150 -232 221 -279 82 -55 227 -126
313 -155 82 -27 104 -50 99 -102 -4 -41 -24 -45 -123 -28 -165 29 -332 115
-444 228 -85 85 -189 221 -207 269 -15 39 -15 46 0 94 18 54 43 99 56 99 4 0
14 -8 22 -17z m4168 -258 c262 -111 446 -232 643 -424 86 -84 120 -125 128
-152 12 -38 5 -104 -11 -114 -20 -13 -69 22 -183 133 -184 178 -223 204 -395
268 -81 30 -214 75 -297 99 -109 31 -151 48 -153 60 -3 14 19 132 34 187 4 15
12 14 87 -6 45 -13 111 -36 147 -51z m733 -302 c42 -76 80 -150 86 -165 20
-53 -11 -76 -49 -38 -62 62 -161 340 -122 340 5 0 43 -62 85 -137z m-4677 -34
c10 -17 -15 -34 -85 -58 -83 -30 -172 -83 -225 -134 -34 -33 -52 -65 -84 -148
-71 -183 -75 -284 -15 -419 13 -30 25 -71 26 -90 2 -29 -1 -35 -18 -35 -15 0
-33 25 -75 108 -53 105 -54 110 -58 205 -3 79 0 114 17 177 57 206 147 296
374 375 88 31 132 36 143 19z m4041 -51 c59 -65 77 -126 46 -160 -13 -15 -32
-18 -115 -18 -106 0 -127 -9 -148 -66 -26 -66 -1 -127 99 -241 74 -85 83 -103
53 -103 -51 0 -256 192 -293 275 -24 53 -24 118 1 199 37 118 63 133 241 135
87 1 97 -1 116 -21z m1190 -88 c34 -17 80 -51 103 -76 37 -41 41 -49 35 -82
-3 -20 -7 -94 -8 -163 -2 -113 0 -129 17 -148 13 -14 31 -21 56 -21 53 0 65
-18 44 -69 -34 -86 -115 -107 -192 -51 -84 60 -91 103 -44 252 54 170 51 225
-14 274 -66 51 -154 41 -203 -22 -48 -61 -17 -205 65 -311 99 -127 120 -206
85 -320 -28 -90 -60 -145 -96 -162 -46 -22 -152 -19 -201 6 -61 32 -142 110
-168 162 -27 51 -114 139 -166 166 -41 21 -125 24 -160 5 -33 -17 -47 -38 -55
-78 -3 -18 -12 -35 -20 -38 -21 -9 -64 25 -91 72 -26 43 -26 43 -9 101 23 78
47 108 103 129 64 24 67 28 54 70 -13 45 -8 59 27 74 23 9 53 6 160 -14 149
-29 177 -42 248 -120 36 -39 63 -87 111 -194 34 -78 62 -147 62 -153 0 -18 82
-3 97 17 7 10 13 25 13 35 0 21 -87 119 -106 119 -20 0 -121 127 -154 195 -47
94 -57 193 -26 244 4 6 35 11 72 11 46 0 64 4 64 13 0 20 50 64 100 86 65 30
125 27 197 -9z m-5250 -165 c186 -150 237 -202 267 -268 12 -28 44 -85 71
-126 31 -47 54 -99 66 -145 40 -153 15 -167 -59 -32 -80 147 -233 374 -302
448 -34 37 -103 99 -155 138 -96 72 -113 93 -94 116 16 19 33 8 206 -131z m43
-203 c0 -24 -22 -55 -95 -133 -34 -36 -78 -92 -97 -125 -74 -123 -180 -332
-203 -399 -37 -112 -58 -256 -58 -405 -1 -125 2 -142 31 -234 35 -107 40 -167
18 -185 -18 -15 -38 12 -65 90 -37 108 -66 364 -57 493 18 241 199 609 411
834 75 80 115 102 115 64z m3569 -23 c123 -20 295 -90 412 -169 132 -89 272
-248 343 -387 67 -133 102 -336 93 -531 -10 -198 -66 -390 -162 -554 -50 -86
-58 -88 -99 -29 l-26 37 75 171 c59 133 77 186 81 235 9 101 -12 373 -36 457
-43 152 -120 286 -232 406 -87 93 -134 125 -303 200 l-150 68 -175 8 c-96 4
-184 8 -194 8 -17 1 -15 6 15 37 18 20 43 40 54 44 29 12 228 12 304 -1z
m-119 -109 c25 -6 56 -13 69 -16 31 -7 19 -17 -49 -40 -72 -25 -136 -85 -145
-138 -6 -30 -3 -51 14 -90 13 -28 25 -57 28 -63 7 -16 -46 -17 -100 -2 -64 17
-110 116 -89 188 16 51 81 117 145 147 58 27 64 27 127 14z m264 -311 c19 -98
-7 -186 -69 -234 -19 -14 -82 -48 -139 -74 -113 -53 -177 -103 -207 -163 -11
-21 -21 -38 -24 -38 -17 0 -165 210 -165 234 0 16 117 73 235 115 186 67 223
82 268 111 25 16 53 40 63 54 22 34 30 33 38 -5z m1512 -37 c24 -48 -23 -145
-86 -177 -42 -21 -167 -36 -228 -26 -54 8 -82 24 -82 47 0 28 31 42 112 49
106 9 155 30 203 89 41 50 62 55 81 18z m-5378 -22 c80 -29 88 -30 262 -30
167 0 185 2 255 26 41 14 79 23 85 19 5 -3 10 -17 10 -30 0 -55 -109 -93 -290
-102 -150 -7 -278 8 -365 43 -78 31 -101 54 -85 83 14 28 31 27 128 -9z m4816
-109 c109 -53 177 -115 217 -197 28 -57 33 -78 37 -168 6 -127 -13 -201 -58
-240 -39 -33 -184 -79 -221 -71 -29 7 -93 88 -86 109 2 6 32 14 68 17 83 7
108 16 142 47 35 34 70 141 61 191 -18 103 -126 219 -251 271 -43 18 -94 39
-113 47 -48 19 -24 33 59 33 55 0 77 -6 145 -39z m-4217 -69 c20 -99 -1 -323
-47 -492 -28 -102 -118 -282 -177 -354 -81 -101 -223 -181 -340 -193 -68 -7
-103 2 -103 27 0 27 27 38 118 49 94 10 110 20 206 122 79 83 157 198 184 272
34 89 62 242 77 416 8 91 15 167 15 168 0 1 7 8 15 17 23 22 43 9 52 -32z
m4740 -59 c13 -78 9 -508 -6 -613 -34 -248 -92 -465 -154 -583 -29 -56 -66
-87 -102 -87 -26 0 -19 93 15 190 16 47 30 96 30 110 0 14 12 95 26 180 23
137 25 174 21 320 -3 102 -13 209 -26 280 -11 63 -21 131 -21 150 l0 36 93 31
c50 17 97 32 104 32 7 1 15 -20 20 -46z m-5247 -33 c72 -44 96 -49 105 -21 17
55 74 3 115 -106 30 -79 29 -145 -2 -185 -57 -75 -126 -143 -207 -206 -47 -36
-130 -106 -184 -154 -53 -48 -102 -88 -107 -88 -38 0 30 94 195 270 136 145
155 177 155 257 0 67 -13 91 -66 123 -28 18 -45 21 -82 17 -39 -4 -53 -12 -82
-45 -31 -34 -39 -38 -55 -29 -29 15 -35 27 -35 75 0 75 63 125 165 131 11 0
49 -17 85 -39z m3785 19 c50 -6 105 -17 124 -25 32 -13 33 -16 26 -51 -4 -21
-7 -42 -8 -47 -1 -5 16 -13 38 -17 95 -18 153 -58 190 -134 24 -47 25 -57 15
-94 -11 -43 -44 -86 -59 -77 -5 3 -11 23 -15 45 -4 27 -16 48 -41 70 -35 31
-37 31 -148 31 l-112 0 -82 -55 c-46 -32 -98 -77 -119 -106 -21 -27 -43 -48
-48 -46 -12 4 -196 266 -196 279 0 5 33 41 73 81 67 67 159 127 226 147 36 11
35 11 136 -1z m-1791 -9 c15 -5 32 -21 38 -35 10 -23 8 -33 -13 -72 -13 -24
-32 -49 -41 -54 -27 -15 -100 -10 -143 10 -36 16 -145 123 -145 142 0 12 38
16 162 18 64 0 128 -3 142 -9z m-125 -396 c35 4 90 13 122 21 77 18 118 6 173
-49 51 -50 76 -116 76 -198 0 -102 -44 -170 -147 -229 l-53 -30 26 -49 c43
-83 10 -107 -157 -117 -139 -8 -189 14 -219 97 -16 46 -27 415 -12 424 6 3 20
-9 31 -28 24 -38 75 -76 145 -107 39 -17 62 -20 111 -17 90 8 115 23 149 92
l30 59 -21 36 c-11 20 -35 46 -53 58 -30 21 -34 21 -62 7 -16 -8 -50 -31 -75
-50 -24 -19 -55 -37 -68 -40 -53 -13 -158 74 -171 142 -10 54 3 57 59 13 51
-41 52 -41 116 -35z m-1586 -122 c-2 -54 -34 -77 -157 -116 -99 -31 -120 -42
-192 -100 -45 -36 -95 -87 -112 -113 -51 -80 -139 -274 -158 -348 -21 -82 -24
-277 -6 -341 7 -23 9 -49 6 -58 -7 -18 -54 -46 -78 -46 -31 0 -70 274 -55 383
27 200 177 459 352 609 97 82 156 114 269 143 120 31 133 30 131 -13z m333
-33 c15 -12 19 -66 6 -86 -6 -9 -22 -6 -67 12 -33 14 -66 25 -72 25 -19 0 -20
31 -3 76 l9 23 57 -19 c31 -11 63 -25 70 -31z m1911 -259 c230 -360 248 -391
232 -401 -8 -5 -37 -9 -64 -9 -63 0 -99 22 -92 57 4 19 1 23 -12 17 -60 -26
-103 -35 -191 -40 l-100 -7 0 34 c1 29 14 170 22 234 2 16 -3 20 -27 20 -29 0
-30 1 -28 47 3 43 53 219 75 261 5 10 17 17 26 15 8 -2 80 -104 159 -228z
m-2043 91 c30 -30 39 -49 43 -85 5 -40 2 -48 -25 -76 -25 -24 -39 -30 -75 -30
-29 0 -53 7 -68 19 l-24 19 38 18 39 18 -7 68 c-4 37 -4 72 0 77 12 21 41 11
79 -28z m4213 -188 c41 -19 70 -61 77 -115 3 -21 9 -56 12 -78 7 -45 15 -49
51 -20 32 25 60 26 66 3 21 -76 11 -236 -19 -308 -8 -20 -13 -39 -10 -42 11
-12 66 35 98 82 43 65 131 126 192 132 50 6 223 -30 253 -53 16 -11 15 -15
-16 -54 -18 -23 -31 -43 -30 -44 2 -2 23 -13 45 -24 96 -49 143 -116 144 -205
0 -86 -36 -137 -118 -165 -43 -15 -49 0 -27 64 31 93 -1 163 -87 189 -128 38
-214 -2 -337 -155 -39 -49 -80 -94 -91 -100 -14 -8 -42 -3 -117 21 -119 38
-243 102 -329 170 -62 49 -72 69 -36 69 44 0 129 78 170 155 24 45 27 61 27
150 0 83 -4 107 -21 140 -32 58 -54 74 -123 87 -33 6 -61 17 -61 23 0 19 41
56 84 76 53 24 155 25 203 2z m-2881 -236 c190 -156 273 -231 263 -237 -13 -9
-68 3 -151 31 -127 43 -208 121 -208 202 0 62 26 63 96 4z m448 -236 c131 -42
236 -62 356 -68 122 -6 171 4 225 47 20 16 41 28 45 25 16 -10 70 -99 70 -115
0 -41 -193 -88 -315 -77 -33 3 -101 19 -151 36 -131 43 -334 147 -334 171 0
14 2 14 104 -19z m588 -218 l197 -6 31 -44 c18 -24 30 -50 27 -57 -8 -19 -172
-28 -296 -16 -161 15 -353 49 -379 66 -27 17 -66 98 -59 119 4 10 36 5 144
-22 127 -32 154 -35 335 -40z m-2947 -78 c16 -15 25 -35 25 -55 l0 -32 -52 6
c-29 3 -44 2 -33 -2 52 -18 75 -50 75 -102 0 -39 -14 -66 -41 -80 -27 -15 -47
2 -55 47 l-7 35 -51 -6 c-57 -8 -100 -33 -104 -63 -2 -12 6 -36 17 -54 38 -63
23 -99 -41 -99 -58 0 -88 34 -88 100 0 91 62 172 160 206 84 30 88 35 25 28
-131 -13 -205 -85 -205 -199 0 -33 4 -75 9 -93 12 -41 -4 -50 -47 -28 -36 19
-42 33 -42 99 0 86 17 127 75 184 83 80 198 132 298 133 48 0 62 -4 82 -25z
m-98 -265 c13 -10 46 -46 75 -80 66 -78 160 -149 263 -200 138 -68 178 -75
450 -75 l240 1 125 37 c196 59 207 66 259 170 l43 87 77 -1 c42 -1 116 -4 165
-8 l88 -6 28 -75 c33 -91 73 -173 107 -219 65 -85 179 -81 397 13 179 77 200
79 254 23 37 -39 46 -66 32 -101 -17 -45 -38 -43 -85 9 -44 47 -44 48 -99 43
-47 -4 -68 -14 -153 -71 -116 -78 -158 -97 -213 -97 -46 0 -68 10 -122 53 -41
33 -58 29 -58 -13 0 -47 -19 -45 -71 6 -36 35 -68 85 -115 177 -36 70 -66 127
-67 127 -2 0 -28 -25 -59 -54 -76 -74 -241 -154 -403 -197 -102 -27 -144 -32
-277 -36 -220 -8 -346 12 -538 84 l-95 36 -180 2 c-99 1 -193 -2 -209 -7 -16
-4 -45 -22 -63 -40 -31 -30 -33 -35 -27 -80 6 -40 4 -49 -11 -54 -24 -9 -44 5
-79 54 -24 34 -27 46 -21 78 15 80 100 132 287 176 l87 20 -64 79 c-77 94 -88
124 -55 151 25 20 50 17 87 -12z m3338 -4 c0 -27 -45 -51 -141 -78 -68 -18
-107 -22 -269 -22 -179 -1 -193 0 -242 23 -106 48 -95 76 22 56 192 -32 300
-27 451 20 98 30 179 30 179 1z m2349 -267 c48 -38 73 -113 41 -125 -8 -3 -29
6 -46 20 -43 37 -87 34 -166 -10 -65 -36 -88 -38 -100 -8 -6 17 73 94 131 127
43 24 107 22 140 -4z m-1674 -93 c52 -24 96 -48 98 -54 5 -17 -186 -46 -310
-47 -103 0 -120 2 -145 21 -83 62 8 121 187 123 68 1 84 -3 170 -43z m1398
-52 c30 -8 28 -35 -5 -66 -36 -33 -72 -41 -128 -27 -52 13 -62 23 -43 46 32
39 119 62 176 47z"/>
<path d="M2548 5713 c-14 -2 -30 -12 -34 -21 -10 -21 -18 -1874 -9 -2000 l7
-93 38 -28 c48 -35 166 -74 290 -97 176 -33 579 -18 668 23 75 36 266 276 347
438 160 320 177 794 40 1092 -71 153 -219 325 -365 423 -119 80 -407 193 -571
224 -94 18 -333 47 -364 45 -11 -1 -32 -4 -47 -6z m423 -563 c41 -12 84 -54
93 -93 4 -15 1 -54 -5 -86 -11 -54 -11 -64 9 -116 12 -31 20 -61 16 -66 -7
-12 -50 -11 -96 2 -47 13 -54 35 -38 128 17 104 -1 141 -70 141 -94 0 -118
-132 -47 -251 40 -67 111 -118 209 -150 71 -23 82 -24 398 -24 205 0 328 -4
332 -10 4 -5 8 -31 8 -57 0 -62 -17 -73 -135 -87 -99 -13 -190 -50 -292 -119
-116 -78 -160 -87 -278 -57 -164 42 -291 190 -207 242 15 9 29 18 31 20 2 1
-24 32 -58 69 -88 96 -124 175 -129 286 -4 74 -1 93 18 132 38 80 146 122 241
96z m668 -104 c58 -95 83 -150 74 -160 -4 -3 -15 -6 -26 -6 -11 0 -39 -18 -62
-39 -39 -36 -46 -39 -79 -31 -20 4 -72 26 -116 49 -44 23 -86 41 -91 41 -6 0
-27 -14 -46 -31 -21 -18 -44 -29 -56 -27 -19 3 -22 11 -25 50 -4 57 9 83 51
108 43 27 130 26 235 -1 105 -28 113 -23 85 60 -20 57 -20 71 -2 71 4 0 31
-38 58 -84z m130 -590 c14 -9 -16 -166 -35 -187 -10 -11 -41 -33 -70 -49 -60
-35 -130 -108 -140 -145 -9 -36 23 -77 65 -86 18 -4 34 -9 37 -12 9 -9 -48
-99 -93 -145 -36 -39 -46 -44 -70 -37 -103 25 -159 118 -127 213 9 24 13 46
10 49 -3 3 -33 -1 -68 -10 -73 -19 -81 -13 -75 48 6 64 36 115 112 190 67 68
167 130 273 171 35 13 159 13 181 0z m-619 -288 c0 -85 -14 -109 -120 -207
-55 -51 -130 -131 -166 -177 -49 -63 -72 -84 -89 -84 -45 0 -55 23 -55 130 l0
98 53 48 c115 104 312 234 354 234 20 0 23 -5 23 -42z"/>
</g>
</svg>
