<?xml version="1.0" standalone="no"?>
<!DOCTYPE svg PUBLIC "-//W3C//DTD SVG 20010904//EN"
 "http://www.w3.org/TR/2001/REC-SVG-20010904/DTD/svg10.dtd">
<svg version="1.0" xmlns="http://www.w3.org/2000/svg"
 width="700.000000pt" height="700.000000pt" viewBox="0 0 700.000000 700.000000"
 preserveAspectRatio="xMidYMid meet">
<metadata>
Created by potrace 1.14, written by Peter Selinger 2001-2017
</metadata>
<g transform="translate(0.000000,700.000000) scale(0.100000,-0.100000)"
fill="#000000" stroke="none">
<path d="M0 3500 l0 -3500 3500 0 3500 0 0 3500 0 3500 -3500 0 -3500 0 0
-3500z m4255 2600 c72 -5 155 -17 185 -25 31 -9 157 -22 285 -30 234 -15 281
-23 417 -69 42 -14 94 -26 115 -26 125 0 350 -217 404 -390 27 -86 43 -330 36
-565 -6 -197 -22 -296 -63 -381 -84 -177 -283 -406 -540 -620 -93 -78 -209
-179 -259 -224 -127 -117 -306 -242 -438 -307 -75 -37 -460 -193 -475 -193
-11 0 -22 24 -22 46 0 9 28 28 68 46 190 85 456 231 570 312 284 203 509 424
599 588 130 239 163 346 163 529 0 95 2 105 41 197 67 156 50 210 -104 344
-26 23 -44 45 -40 49 12 11 133 -11 181 -33 57 -27 119 -99 137 -161 43 -145
39 -315 -11 -464 -31 -94 -116 -282 -160 -354 -36 -60 -41 -79 -22 -79 40 0
163 202 222 368 81 227 89 515 18 674 -50 113 -172 198 -313 218 -134 20 -144
23 -147 52 -2 15 2 37 8 49 11 19 7 26 -37 65 -51 46 -131 79 -218 90 -28 4
-70 19 -95 34 -55 35 -257 101 -405 134 -130 29 -215 59 -269 95 -57 38 -59
54 -5 47 24 -4 103 -11 174 -16z m1838 -14 c18 -7 40 -22 50 -33 17 -20 17
-20 -20 -27 -21 -3 -54 -6 -74 -6 -21 0 -63 -14 -100 -32 -100 -51 -150 -133
-123 -202 8 -20 43 -20 72 0 32 22 109 20 141 -4 87 -65 -48 -137 -137 -74
-31 23 -34 23 -57 8 -34 -22 -32 -40 15 -111 54 -83 59 -129 30 -281 -41 -222
-118 -484 -142 -484 -15 0 -6 109 21 275 27 168 43 326 37 369 -4 25 -32 97
-63 158 -99 199 -85 312 50 391 57 34 133 53 255 66 7 0 27 -5 45 -13z m-2408
-29 c386 -108 682 -337 835 -644 61 -124 79 -196 91 -376 20 -291 -5 -500 -80
-690 -129 -324 -304 -549 -666 -853 -147 -124 -159 -137 -150 -163 10 -31 89
-150 299 -445 106 -149 291 -410 411 -581 397 -564 609 -835 821 -1051 228
-231 393 -328 711 -415 152 -41 185 -56 202 -87 13 -25 3 -67 -23 -91 -76 -71
-540 -98 -797 -46 -181 37 -368 112 -501 202 -295 200 -590 582 -1212 1572
-79 125 -221 348 -317 495 l-174 269 -310 -6 c-359 -7 -338 0 -350 -113 -11
-94 2 -1083 14 -1184 42 -333 120 -445 366 -524 44 -14 135 -39 202 -57 139
-36 163 -52 163 -108 0 -21 3 -53 6 -70 l7 -31 -1067 0 -1066 0 0 74 c0 52 4
77 15 86 7 6 76 29 152 51 265 76 391 160 459 303 60 128 65 160 74 521 11
425 11 2520 0 2905 -8 276 -10 301 -35 385 -63 215 -153 312 -416 453 -109 59
-119 72 -119 167 l0 65 83 0 c46 0 213 -7 372 -14 587 -30 627 -30 761 -7 199
35 290 40 729 36 413 -3 421 -4 510 -28z m-2656 -53 c45 -57 14 -133 -47 -119
-42 9 -66 39 -66 82 0 64 73 88 113 37z m115 -230 c3 -9 6 -24 6 -34 0 -32 51
-81 150 -145 247 -160 278 -286 130 -520 -66 -104 -117 -210 -137 -288 -21
-82 -8 -166 48 -316 23 -61 38 -115 35 -119 -11 -11 -64 57 -92 118 -54 116
-85 223 -94 333 -6 59 -15 158 -21 220 -6 61 -15 156 -20 209 -5 54 -13 117
-19 140 -5 24 -10 71 -10 105 0 58 -3 65 -41 109 -23 26 -48 62 -57 81 -14 29
-14 36 -1 59 27 51 109 83 123 48z m3591 -85 c59 -22 131 -85 183 -161 49 -72
119 -219 145 -308 52 -171 69 -353 43 -443 -19 -66 -142 -344 -191 -434 -40
-74 -203 -320 -216 -329 -5 -3 -12 2 -15 11 -4 10 23 78 69 173 112 230 191
453 218 617 13 79 6 228 -16 320 l-14 60 7 -65 c4 -36 6 -123 6 -195 -1 -104
-7 -149 -27 -226 -36 -137 -124 -355 -202 -500 -76 -141 -71 -133 -83 -125 -5
3 14 105 45 233 108 460 107 451 107 708 l1 230 -34 110 c-59 193 -105 276
-157 289 -32 8 -30 22 4 40 37 21 62 20 127 -5z m-3095 -481 c0 -2 -9 -27 -20
-56 -13 -34 -20 -76 -20 -123 0 -58 -6 -84 -32 -142 -36 -82 -38 -113 -16
-212 15 -62 15 -82 3 -175 -10 -74 -11 -124 -5 -170 28 -196 32 -231 27 -236
-9 -9 -64 93 -98 181 -50 128 -70 221 -76 350 -5 104 -3 131 16 200 38 137
174 385 212 385 5 0 9 -1 9 -2z m4505 -67 c3 -6 -2 -16 -11 -23 -129 -104
-167 -164 -182 -290 -14 -109 -34 -149 -125 -246 -99 -106 -152 -166 -217
-246 -79 -98 -240 -224 -240 -188 0 4 33 44 73 88 41 45 100 121 132 170 73
112 219 380 271 498 48 110 143 216 209 233 52 14 82 15 90 4z m-5211 -387
c-12 -28 -12 -43 -3 -77 14 -55 89 -128 155 -152 127 -47 241 -170 403 -435
99 -162 119 -210 88 -210 -26 0 -75 60 -189 235 -95 146 -170 223 -254 262
-30 14 -57 23 -60 20 -3 -2 18 -19 46 -36 81 -50 136 -107 191 -199 29 -48 76
-121 106 -163 29 -43 53 -80 53 -83 0 -13 -39 -4 -110 25 -113 46 -151 72
-220 149 -35 39 -81 80 -102 91 -98 50 -151 130 -163 249 -4 36 -13 87 -21
114 -18 64 -18 140 1 175 17 34 73 83 85 76 5 -3 2 -21 -6 -41z m4919 -515
c37 -19 57 -52 57 -96 0 -34 -5 -46 -31 -67 -36 -30 -101 -35 -136 -11 -32 23
-49 86 -34 124 21 49 95 75 144 50z m-168 -90 c10 -15 -33 -57 -65 -64 -70
-15 -194 -71 -343 -153 -233 -129 -307 -149 -221 -60 70 71 295 207 346 208 7
0 56 18 108 40 94 39 163 50 175 29z m-4117 -328 c16 -9 22 -21 22 -48 l0 -35
-102 6 c-156 11 -292 -24 -371 -94 l-42 -37 19 -35 c23 -42 17 -76 -22 -119
-42 -48 -120 -42 -147 11 -31 61 -7 121 60 151 30 13 51 32 66 59 36 64 147
133 241 149 70 13 247 8 276 -8z m3876 -41 c246 -50 418 -155 486 -295 33 -69
51 -170 39 -227 -6 -26 -15 -51 -21 -55 -19 -11 -46 34 -53 87 -12 88 -90 170
-187 196 -82 22 -186 28 -252 14 -32 -6 -117 -32 -189 -56 -213 -71 -425 -89
-279 -24 52 24 257 93 342 115 31 8 93 19 139 24 118 13 129 31 19 31 -155 0
-410 -69 -632 -172 -70 -33 -142 -60 -160 -60 -51 -2 -157 14 -154 23 2 4 30
29 64 56 33 26 100 90 149 141 120 127 156 150 300 191 127 36 249 40 389 11z
m-3834 -249 c0 -5 -5 -22 -11 -38 -7 -17 -13 -103 -14 -218 -1 -176 -3 -195
-27 -262 -38 -106 -71 -157 -173 -264 -133 -139 -192 -232 -265 -416 -18 -46
-37 -83 -41 -83 -27 0 7 143 60 249 52 106 75 138 196 281 101 120 172 234
163 262 -3 7 -18 -8 -34 -36 -43 -73 -98 -143 -202 -258 -159 -175 -224 -346
-224 -584 0 -67 4 -130 10 -139 8 -15 14 -8 42 43 60 114 200 219 320 242 66
12 195 -2 221 -26 20 -18 26 -68 9 -79 -5 -3 -24 2 -42 12 -47 25 -193 24
-273 -1 -49 -15 -72 -31 -125 -85 -64 -65 -129 -166 -115 -179 4 -4 15 4 23
18 31 47 124 139 171 169 96 61 222 76 302 36 56 -28 69 -45 69 -86 0 -46 -11
-55 -35 -29 -23 26 -116 60 -163 60 -148 0 -292 -105 -387 -283 -38 -71 -48
-101 -53 -152 -4 -56 -1 -69 21 -107 26 -45 82 -96 155 -141 47 -31 56 -63 20
-72 -76 -17 -243 -35 -333 -35 -102 0 -105 1 -105 23 0 47 12 52 134 57 63 3
118 8 122 12 4 4 -15 32 -43 61 -27 29 -55 63 -62 76 -22 41 -15 120 19 221
32 93 33 100 40 335 10 314 38 449 140 655 44 90 168 282 234 363 46 57 54 78
23 60 -22 -12 -141 -157 -199 -243 -93 -137 -158 -294 -196 -470 -10 -43 -21
-79 -27 -81 -24 -9 -33 326 -12 436 17 85 30 107 107 174 48 42 63 63 81 113
28 75 85 164 130 202 19 16 61 41 94 56 39 18 79 47 115 84 30 32 64 62 75 66
27 12 65 12 65 1z m3932 -161 c26 0 68 -51 68 -83 0 -35 -24 -83 -49 -97 -33
-17 -73 -11 -113 16 -45 31 -55 62 -37 105 15 37 66 72 94 64 11 -2 28 -5 37
-5z m-974 -45 c127 -19 188 -38 294 -91 52 -26 85 -38 82 -30 -8 20 51 31 119
23 121 -15 263 -130 335 -272 41 -82 102 -245 102 -272 0 -10 -6 -13 -17 -8
-10 3 -30 9 -44 12 l-26 5 5 -99 c3 -82 -1 -124 -27 -255 -17 -87 -31 -168
-31 -181 0 -14 -13 -69 -29 -123 -45 -158 -117 -282 -141 -244 -5 8 -12 33
-16 55 -17 106 -143 274 -255 343 -39 24 -75 66 -103 120 -13 25 -22 32 -34
27 -47 -20 -49 -18 -91 65 -38 76 -41 89 -41 162 0 72 -2 79 -17 73 -51 -21
-67 14 -58 126 11 121 55 226 125 294 32 31 43 36 65 31 98 -25 261 -348 325
-646 36 -169 49 -234 52 -264 2 -16 9 -31 16 -34 29 -9 4 228 -42 400 -25 90
-57 184 -110 317 -63 157 -152 255 -296 324 -52 25 -122 51 -155 58 -95 20
-256 15 -355 -10 -191 -50 -211 -54 -223 -42 -8 8 -8 17 -2 27 15 23 199 92
279 104 158 23 192 24 314 5z m-195 -118 c48 -20 60 -40 52 -84 -8 -52 -33
-80 -77 -88 -33 -6 -41 -3 -68 23 -51 52 -36 131 30 155 23 8 28 8 63 -6z
m-1508 -147 c3 -5 -15 -50 -40 -100 -59 -117 -87 -188 -76 -194 5 -3 39 1 77
9 148 31 296 11 394 -54 71 -47 165 -136 198 -189 60 -93 84 -175 86 -292 1
-93 -2 -111 -23 -155 -38 -76 -97 -129 -172 -154 -35 -11 -136 -32 -224 -46
-229 -35 -288 -56 -386 -140 l-54 -46 -12 28 c-23 54 -16 78 36 125 100 91
230 139 425 158 238 24 311 91 311 285 0 79 -4 97 -28 147 -85 172 -269 271
-444 239 -137 -25 -256 -119 -329 -262 l-39 -74 -3 160 c-2 152 -1 163 22 210
115 238 163 329 180 341 23 16 92 19 101 4z m140 0 c3 -5 -12 -32 -34 -60 -22
-27 -52 -75 -67 -106 -19 -40 -37 -60 -61 -72 -18 -8 -35 -13 -39 -10 -12 12
107 232 134 248 22 12 59 13 67 0z m2756 -26 c15 -13 19 -31 19 -84 0 -71 -16
-99 -67 -114 -50 -15 -133 52 -133 108 0 28 38 84 68 101 32 18 87 13 113 -11z
m-4132 -471 c20 -17 22 -26 19 -113 l-3 -95 -122 -2 c-184 -3 -259 -33 -365
-147 -26 -27 -51 -47 -54 -43 -10 9 43 145 77 199 56 88 167 174 262 203 63
20 160 19 186 -2z m4166 -13 c89 -31 149 -74 216 -158 76 -96 110 -162 148
-292 87 -292 28 -526 -186 -737 -36 -35 -81 -75 -101 -90 -20 -15 -67 -51
-103 -80 -36 -29 -73 -53 -82 -53 -26 0 -31 20 -11 45 213 262 234 297 276
468 24 96 31 145 31 232 1 110 -18 255 -33 255 -4 0 -10 -87 -12 -192 -7 -267
-31 -361 -131 -516 -45 -69 -172 -212 -188 -212 -16 0 -9 29 22 98 36 79 69
224 68 302 0 30 -6 84 -14 120 -8 36 -14 102 -15 148 0 90 11 122 61 180 23
26 29 43 31 85 3 97 -4 152 -28 229 -21 66 -31 82 -69 114 -45 37 -56 58 -32
67 28 12 98 6 152 -13z m-2595 -111 c56 -25 77 -44 101 -91 41 -81 11 -168
-68 -196 -38 -14 -43 -14 -68 2 -50 33 -49 95 1 135 39 31 8 46 -90 45 -93 -2
-176 -30 -275 -94 -63 -41 -161 -135 -188 -181 -10 -16 -20 -29 -24 -29 -10 0
-16 147 -8 168 26 69 184 189 306 233 102 36 242 40 313 8z m572 -496 c29 -33
37 -60 44 -140 6 -74 5 -81 -17 -107 l-24 -28 -105 36 c-58 19 -138 45 -178
56 -63 18 -72 23 -61 36 21 25 46 35 145 54 104 20 120 29 141 78 15 36 32 41
55 15z m-2343 -122 c36 -34 39 -53 11 -81 -46 -46 -112 -29 -135 35 -8 24 -6
30 18 51 37 32 68 30 106 -5z m2007 -77 c105 -22 231 -67 329 -117 99 -52 221
-170 285 -276 36 -61 44 -82 44 -124 0 -42 -4 -53 -28 -74 -16 -13 -33 -22
-40 -20 -18 6 -54 78 -62 122 -9 58 -27 88 -73 120 -51 35 -61 28 -23 -16 59
-68 66 -106 27 -144 -28 -29 -83 -33 -136 -11 -42 17 -63 41 -123 133 -26 40
-72 95 -103 123 -59 54 -148 110 -173 110 -16 -1 -17 0 85 -80 137 -107 224
-261 224 -395 1 -79 -17 -128 -76 -208 -35 -48 -147 -132 -163 -122 -4 3 -4
22 1 44 13 60 -8 120 -55 152 -53 36 -66 65 -77 177 -24 236 -60 332 -147 399
-64 48 -70 40 -16 -19 50 -57 94 -138 94 -177 0 -23 -2 -24 -63 -19 -96 8
-107 17 -107 87 0 44 -5 65 -21 85 -49 62 -125 72 -214 29 l-55 -27 -32 31
c-38 39 -35 43 64 109 186 124 389 158 634 108z m-2093 -108 c14 -20 14 -29 3
-67 -15 -50 -54 -119 -67 -119 -12 0 -79 90 -85 116 -8 31 9 58 48 77 48 24
83 21 101 -7z m4925 -447 c40 -42 34 -123 -11 -152 -35 -22 -96 -28 -127 -12
-25 13 -50 58 -50 90 0 6 16 30 36 53 33 39 39 42 84 42 37 0 54 -5 68 -21z
m-5320 -21 c21 -21 15 -75 -10 -92 -27 -19 -69 -21 -86 -4 -19 19 -14 65 10
88 24 22 68 26 86 8z m3516 -244 c77 -78 88 -114 34 -114 -18 0 -113 18 -212
40 l-179 40 -54 -47 c-127 -113 -300 -199 -445 -223 -94 -15 -336 -12 -455 6
-201 29 -382 115 -515 242 -21 20 -38 40 -38 44 0 4 34 8 75 8 56 0 77 -4 81
-14 9 -22 115 -92 206 -136 129 -62 242 -83 418 -77 106 3 167 10 224 26 98
26 264 105 331 156 50 39 87 51 183 62 43 5 63 1 112 -21 84 -38 129 -44 146
-21 8 11 14 36 14 57 0 21 2 38 4 38 3 0 34 -30 70 -66z m-1370 40 c45 -6 48
-8 31 -20 -26 -19 -85 -17 -107 3 -25 22 -23 36 5 30 12 -3 44 -9 71 -13z"/>
<path d="M4972 5911 c9 -6 63 -27 119 -47 172 -60 221 -90 358 -219 35 -33 90
-93 122 -133 54 -67 59 -71 59 -45 0 80 -199 283 -356 361 -87 44 -357 117
-302 83z"/>
<path d="M2486 5723 c-19 -197 -31 -1531 -17 -1920 6 -171 9 -194 26 -213 71
-79 316 -130 618 -130 213 0 328 14 391 48 148 80 350 366 424 602 181 571 46
1080 -368 1390 -205 154 -664 290 -979 290 l-88 0 -7 -67z m206 -180 c37 -33
6 -133 -41 -133 -59 0 -83 79 -36 125 28 29 51 32 77 8z m544 -65 c99 -152
117 -225 65 -252 -35 -18 -73 -62 -90 -105 -8 -17 -17 -31 -21 -31 -4 0 -15
19 -24 43 -9 24 -39 83 -67 132 -59 103 -68 145 -42 195 15 30 97 89 125 90 4
0 28 -33 54 -72z m-316 -39 c63 -32 152 -147 212 -276 32 -67 42 -127 54 -325
3 -54 10 -98 15 -98 4 0 7 64 6 143 -1 127 1 147 20 188 74 161 289 217 363
96 25 -40 27 -87 4 -87 -9 0 -29 11 -46 25 -37 32 -51 32 -37 1 7 -14 9 -35 6
-48 -9 -34 -210 -228 -214 -206 -5 19 28 88 64 136 16 22 20 32 10 32 -36 0
-100 -115 -117 -211 -5 -30 -14 -142 -20 -249 -6 -107 -16 -226 -24 -264 -17
-85 -3 -73 44 40 30 73 54 165 84 328 27 141 82 225 177 265 70 30 94 26 92
-17 -1 -28 2 -32 15 -26 62 26 95 33 154 34 37 0 69 -4 72 -9 8 -12 -39 -106
-77 -154 -34 -44 -32 -53 9 -32 25 13 29 13 32 1 6 -26 -47 -114 -99 -165 -63
-62 -134 -97 -214 -107 -55 -6 -59 -6 -46 10 8 9 49 35 92 57 97 50 114 78 26
42 -144 -58 -166 -82 -266 -280 -56 -113 -74 -158 -162 -404 -65 -185 -114
-300 -132 -311 -18 -12 -51 -9 -70 5 -16 11 -11 28 56 197 97 243 112 307 110
441 -2 119 -21 188 -72 263 -41 60 -79 85 -159 106 -37 10 -78 21 -92 25 l-25
7 24 -21 c13 -12 54 -30 91 -42 38 -11 76 -26 87 -34 17 -13 16 -14 -11 -25
-32 -12 -103 -5 -151 15 -16 6 -56 35 -87 64 -45 41 -61 64 -73 104 -20 66
-19 74 6 80 16 4 19 10 14 29 -14 46 -47 88 -73 94 -47 10 -52 13 -52 31 1 24
61 105 102 136 54 41 103 50 147 27 21 -10 44 -26 52 -36 13 -16 14 -14 19 22
l6 39 55 -55 c92 -93 169 -275 169 -400 0 -43 8 -80 60 -270 l18 -65 1 138 c1
162 -12 302 -39 408 -31 123 -78 243 -110 280 -26 31 -25 25 15 -56 25 -49 45
-102 45 -118 l0 -30 -22 29 c-13 16 -54 65 -92 109 -38 44 -79 103 -92 130
-24 51 -32 115 -14 115 16 0 12 37 -5 43 -16 7 -55 78 -55 101 0 19 71 10 120
-15z m-45 -1078 c84 -39 119 -95 120 -192 0 -72 -13 -99 -50 -99 -16 0 -26 9
-36 31 -14 36 -61 60 -102 52 -58 -11 -104 -105 -94 -191 3 -26 32 -99 69
-175 100 -203 103 -216 55 -203 -15 3 -30 18 -38 38 -7 18 -41 74 -75 123
-149 218 -173 333 -104 480 34 71 83 121 136 140 52 19 72 18 119 -4z m768
-51 c67 -42 99 -109 105 -220 5 -100 -6 -149 -49 -213 -45 -68 -96 -100 -257
-164 -79 -31 -174 -76 -210 -100 -120 -79 -149 -50 -51 52 69 72 165 124 264
145 116 23 177 82 191 182 16 113 -86 178 -165 105 -13 -12 -27 -32 -32 -44
-12 -33 -25 -29 -55 17 -23 34 -26 47 -22 100 3 48 10 67 34 97 63 79 163 97
247 43z m-793 -200 c24 -24 26 -57 3 -82 -31 -35 -93 -13 -93 33 0 21 42 69
60 69 5 0 19 -9 30 -20z m722 -27 c36 -32 16 -103 -29 -103 -55 0 -83 62 -46
102 20 22 51 23 75 1z"/>
<path d="M2820 4813 c56 -77 143 -184 147 -180 16 17 -93 164 -141 189 -19 10
-20 10 -6 -9z"/>
<path d="M3539 4693 c-49 -41 -102 -103 -94 -111 3 -3 41 29 84 71 83 81 88
104 10 40z"/>
<path d="M1275 5495 c37 -49 65 -127 65 -182 0 -19 -18 -89 -39 -156 -41 -127
-58 -222 -42 -231 5 -3 18 29 30 72 11 42 34 120 51 172 21 66 30 115 30 161
0 61 -3 70 -39 121 -22 30 -52 63 -66 72 -23 15 -22 12 10 -29z"/>
<path d="M1369 5485 c52 -59 74 -118 69 -179 -3 -28 -26 -108 -51 -178 -26
-70 -47 -131 -47 -135 1 -12 40 64 81 158 44 102 55 160 40 217 -13 46 -63
117 -101 141 -21 13 -20 10 9 -24z"/>
<path d="M5053 4773 c-14 -54 -52 -148 -98 -243 -76 -156 -77 -172 -4 -47 66
112 106 216 128 331 14 78 -3 51 -26 -41z"/>
<path d="M4762 4423 c-16 -43 -32 -91 -36 -108 l-6 -30 15 25 c18 30 67 181
61 187 -2 2 -17 -31 -34 -74z"/>
<path d="M5080 3647 c-85 -26 -169 -70 -250 -132 -55 -43 -99 -85 -87 -85 6 0
172 94 237 135 19 12 69 37 110 55 123 55 119 65 -10 27z"/>
<path d="M5256 2503 c-3 -21 -6 -96 -6 -166 0 -71 -5 -159 -11 -197 -6 -38 -9
-84 -7 -102 3 -30 4 -31 14 -13 25 42 54 219 54 323 0 147 -28 247 -44 155z"/>
<path d="M6119 1818 c-38 -142 -53 -182 -100 -258 -28 -47 -54 -89 -57 -95 -3
-5 5 -3 18 6 70 45 151 211 164 337 6 63 -9 69 -25 10z"/>
<path d="M5775 1573 c-38 -108 -45 -135 -32 -131 18 6 58 91 64 138 8 55 -11
51 -32 -7z"/>
</g>
</svg>
