<?xml version="1.0" standalone="no"?>
<!DOCTYPE svg PUBLIC "-//W3C//DTD SVG 20010904//EN"
 "http://www.w3.org/TR/2001/REC-SVG-20010904/DTD/svg10.dtd">
<svg version="1.0" xmlns="http://www.w3.org/2000/svg"
 width="700.000000pt" height="700.000000pt" viewBox="0 0 700.000000 700.000000"
 preserveAspectRatio="xMidYMid meet">
<metadata>
Created by potrace 1.14, written by Peter Selinger 2001-2017
</metadata>
<g transform="translate(0.000000,700.000000) scale(0.100000,-0.100000)"
fill="#000000" stroke="none">
<path d="M4040 6111 c0 -35 185 -113 320 -136 120 -20 366 -103 405 -136 11
-9 51 -22 88 -28 101 -17 167 -46 222 -94 38 -34 47 -48 41 -63 -15 -37 -16
-62 -3 -72 11 -10 61 -20 136 -28 49 -5 130 -33 176 -62 174 -108 231 -358
160 -707 -21 -102 -103 -296 -170 -401 -43 -68 -70 -94 -96 -94 -22 0 -18 16
19 75 75 120 182 382 198 485 18 122 -3 305 -46 390 -36 71 -115 119 -228 138
-69 12 -75 -1 -21 -46 79 -66 107 -101 128 -156 24 -65 21 -88 -25 -186 -33
-70 -36 -83 -40 -200 -3 -69 -10 -145 -15 -170 -6 -25 -13 -58 -15 -75 -6 -39
-123 -271 -179 -355 -24 -36 -61 -83 -82 -106 -21 -22 -45 -49 -54 -60 -49
-58 -275 -249 -404 -340 -141 -100 -407 -247 -602 -333 -52 -22 -63 -40 -44
-69 9 -16 10 -15 271 91 235 96 261 109 399 202 131 88 196 139 297 234 39 36
81 75 95 86 13 11 49 40 79 65 30 25 57 47 60 50 3 3 30 25 60 50 119 97 308
305 386 426 89 135 118 215 131 359 13 134 5 578 -12 658 -7 35 -46 140 -54
147 -4 3 -24 31 -45 62 -53 77 -160 179 -219 207 -27 13 -79 27 -116 31 -37 4
-88 17 -114 28 -88 39 -208 57 -437 67 -150 7 -178 10 -245 26 -22 5 -49 12
-60 14 -27 7 -97 13 -225 20 -57 4 -108 9 -112 11 -4 3 -8 1 -8 -5z m977 -197
c198 -45 282 -82 398 -177 130 -104 209 -200 218 -264 7 -44 -3 -41 -41 10
-38 53 -169 187 -242 248 -60 50 -121 81 -250 127 -103 37 -160 61 -160 67 0
7 1 7 77 -11z"/>
<path d="M6010 6093 c-64 -7 -160 -32 -198 -52 -55 -28 -111 -90 -123 -136
-19 -69 -4 -140 55 -260 30 -60 57 -124 61 -142 7 -35 8 -126 1 -158 -2 -11
-7 -45 -11 -75 -4 -30 -9 -66 -11 -80 -3 -14 -7 -41 -9 -60 -3 -19 -7 -46 -10
-58 -17 -71 -27 -232 -15 -232 6 0 10 6 10 13 0 6 13 44 29 84 26 62 53 169
106 421 7 34 12 89 10 122 -3 49 -10 69 -43 117 -51 77 -54 87 -31 112 25 26
42 26 77 1 46 -34 132 -28 152 11 33 61 -87 106 -164 61 -47 -28 -70 -20 -81
27 -4 21 1 43 19 78 29 58 33 62 111 101 63 32 93 40 163 41 50 1 52 16 6 42
-37 22 -61 26 -104 22z"/>
<path d="M2737 6084 c-1 -2 -40 -5 -85 -9 -46 -3 -127 -15 -180 -25 -84 -17
-129 -19 -327 -15 -126 3 -259 7 -295 9 -202 11 -399 19 -500 20 l-115 1 0
-71 c0 -87 10 -101 110 -151 97 -49 222 -132 269 -179 41 -42 83 -100 109
-151 29 -55 67 -202 74 -287 11 -108 10 -3276 0 -3391 -17 -201 -97 -360 -219
-438 -89 -56 -180 -93 -358 -143 -52 -15 -100 -34 -107 -43 -7 -9 -13 -46 -13
-83 l0 -68 1063 0 1062 0 -3 70 c-5 89 -15 97 -159 134 -268 70 -379 119 -448
199 -52 60 -93 157 -109 257 -3 19 -8 45 -10 57 -5 25 -13 117 -21 249 -8 133
-9 983 -1 1029 11 65 16 75 44 82 15 4 161 8 326 8 l298 0 134 -205 c73 -113
197 -306 275 -430 571 -903 798 -1226 1038 -1473 192 -198 344 -296 577 -372
180 -60 285 -73 539 -70 121 1 234 5 250 9 109 24 133 30 157 42 33 17 48 43
48 83 0 40 -35 62 -144 91 -250 65 -420 139 -566 248 -84 63 -261 235 -366
357 -38 44 -71 82 -74 85 -15 15 -167 210 -241 310 -112 150 -380 528 -924
1302 -49 70 -103 150 -118 178 l-28 49 28 29 c15 16 84 76 153 133 390 325
596 616 694 979 33 122 39 179 38 380 0 246 -10 327 -52 443 -56 151 -135 273
-254 393 -124 123 -281 223 -463 294 -200 79 -225 82 -691 84 -227 1 -414 1
-415 0z m68 -309 c117 -17 123 -18 229 -45 140 -36 312 -102 426 -164 184 -99
356 -285 445 -480 78 -172 105 -311 100 -526 -2 -137 -8 -182 -39 -328 -3 -12
-17 -62 -31 -110 -89 -293 -337 -612 -498 -643 -126 -23 -382 -31 -542 -16
-185 18 -374 78 -407 129 -8 13 -16 48 -19 78 -13 174 0 1993 15 2065 3 11 5
28 5 37 1 9 9 18 19 21 29 6 192 -3 297 -18z"/>
<path d="M2624 5542 c-17 -11 -34 -48 -34 -75 0 -27 13 -41 47 -51 49 -15 99
84 61 122 -13 13 -57 16 -74 4z"/>
<path d="M3130 5523 c-56 -28 -90 -85 -83 -138 3 -19 25 -68 49 -108 25 -40
55 -99 68 -131 l24 -59 20 40 c18 34 40 57 111 115 22 18 4 86 -42 162 -23 37
-51 83 -61 102 -10 18 -24 35 -30 36 -6 2 -31 -6 -56 -19z m65 -114 c-6 -29
-15 -37 -15 -12 0 17 8 33 16 33 2 0 1 -10 -1 -21z"/>
<path d="M2800 5458 c0 -20 29 -75 55 -102 24 -27 26 -31 11 -41 -42 -31 2
-129 121 -271 49 -57 89 -100 91 -94 4 11 -34 116 -52 145 -7 11 -21 32 -31
48 -21 33 -14 35 16 5 50 -53 111 -221 140 -387 18 -105 28 -463 12 -448 -4 4
-9 20 -11 35 -1 15 -14 63 -28 107 -29 89 -30 98 -38 203 -7 83 -44 203 -87
279 -31 55 -111 143 -129 143 -5 0 -10 -13 -10 -30 0 -36 -9 -38 -39 -6 -22
24 -66 42 -86 37 -5 -2 -18 -5 -29 -7 -40 -8 -98 -57 -145 -123 -28 -40 -20
-64 23 -69 31 -4 73 -55 82 -100 5 -25 3 -32 -9 -32 -25 0 -28 -14 -11 -71 19
-64 90 -139 160 -170 43 -19 148 -28 162 -14 11 11 -27 33 -86 51 -31 8 -71
27 -91 41 l-36 25 30 -5 c46 -8 157 -42 183 -56 35 -19 99 -106 122 -168 34
-87 36 -250 6 -363 -20 -75 -130 -366 -156 -412 -19 -33 46 -58 79 -30 23 20
51 87 131 312 79 225 109 298 171 415 57 110 97 171 125 197 25 22 185 90 193
82 10 -9 -39 -45 -106 -76 -57 -27 -98 -58 -76 -58 40 0 137 26 176 48 59 32
140 118 168 179 23 52 20 61 -17 44 -36 -16 -42 -6 -16 27 39 48 92 160 79
164 -31 10 -155 0 -184 -16 -46 -23 -56 -21 -48 13 8 36 -9 44 -62 29 -79 -22
-173 -116 -189 -189 -3 -13 -16 -80 -29 -149 -25 -131 -51 -220 -90 -307 -24
-51 -53 -84 -41 -47 17 59 29 180 41 418 9 180 42 286 106 340 40 34 49 26 17
-16 -31 -42 -71 -125 -66 -139 4 -13 205 186 213 212 3 10 1 27 -4 38 -22 40
-3 42 46 5 36 -27 53 -25 53 9 0 35 -34 82 -73 100 -122 58 -288 -42 -322
-193 -5 -19 -7 -92 -6 -162 1 -84 -2 -128 -9 -128 -5 0 -10 15 -11 33 0 17 -2
41 -4 52 -2 11 -6 67 -10 125 -7 142 -10 151 -65 257 -56 107 -124 198 -176
232 -35 25 -134 45 -134 29z m84 -688 c51 -53 94 -125 83 -137 -3 -2 -41 41
-86 96 -88 111 -87 136 3 41z m656 -110 c-47 -44 -88 -80 -92 -80 -49 -2 122
156 172 160 3 0 -33 -36 -80 -80z"/>
<path d="M2790 4370 c-74 -13 -123 -54 -164 -136 -30 -60 -37 -91 -37 -169 0
-81 34 -162 125 -300 40 -60 81 -125 90 -142 12 -24 24 -33 41 -33 23 0 23 2
13 32 -6 18 -41 89 -77 158 -65 123 -65 126 -66 205 0 66 4 86 23 116 26 42
64 61 107 54 32 -6 75 -46 75 -71 0 -15 27 -19 46 -6 18 12 31 65 28 110 -8
112 -106 200 -204 182z"/>
<path d="M3457 4320 c-100 -55 -127 -202 -50 -272 18 -17 20 -16 38 18 42 79
142 87 180 14 34 -66 5 -177 -59 -224 -34 -25 -117 -56 -152 -56 -12 0 -58
-18 -102 -40 -57 -29 -95 -57 -136 -100 -31 -34 -56 -67 -56 -75 0 -24 38 -17
83 14 61 42 147 83 276 132 185 71 257 152 268 303 9 122 -30 226 -106 276
-50 33 -132 38 -184 10z"/>
<path d="M2791 4116 c-4 -6 -14 -21 -20 -34 -27 -52 49 -99 82 -51 15 21 16
29 4 65 -8 24 -52 37 -66 20z"/>
<path d="M3500 4080 c-24 -24 -25 -48 -4 -78 28 -41 82 -25 88 25 8 62 -43 94
-84 53z"/>
<path d="M932 6005 c-16 -20 -19 -32 -12 -55 12 -41 16 -47 48 -58 59 -20 97
27 72 89 -23 54 -76 65 -108 24z"/>
<path d="M1095 5783 c-25 -6 -65 -42 -75 -68 -9 -25 16 -76 64 -129 35 -39 40
-52 36 -111 0 -17 3 -51 9 -75 11 -51 18 -103 26 -209 3 -41 8 -77 10 -80 5
-9 14 -115 20 -241 8 -149 47 -299 110 -419 26 -49 73 -106 81 -98 3 2 -12 49
-32 103 -53 141 -63 188 -60 268 4 87 37 175 115 301 122 199 144 280 101 366
-39 76 -88 126 -191 194 -117 77 -149 108 -164 161 -11 39 -18 45 -50 37z
m203 -287 c91 -99 98 -163 39 -346 -19 -58 -42 -135 -52 -172 -9 -38 -22 -68
-27 -68 -21 0 1 135 40 253 32 95 39 129 36 173 -5 61 -30 123 -69 168 -27 32
-29 36 -16 36 5 0 27 -20 49 -44z m105 -26 c90 -99 89 -172 -3 -373 -34 -72
-65 -136 -70 -141 -12 -12 20 86 65 204 38 98 49 172 34 225 -5 17 -27 54 -49
83 -51 66 -36 68 23 2z"/>
<path d="M4623 5699 c-42 -12 -50 -27 -21 -38 71 -28 112 -114 188 -393 10
-37 16 -84 15 -105 -2 -21 -5 -101 -6 -178 -2 -181 -19 -293 -75 -517 -2 -10
-6 -28 -9 -40 -10 -45 -38 -166 -56 -240 -38 -155 -16 -137 90 72 77 153 161
376 186 495 10 48 17 126 17 195 0 108 -2 139 -16 236 -6 34 -5 36 5 14 11
-25 13 -35 25 -95 15 -80 19 -221 9 -280 -18 -98 -31 -148 -71 -270 -48 -146
-61 -178 -161 -384 -45 -93 -61 -137 -54 -144 6 -6 12 -9 14 -6 2 2 45 65 95
140 92 136 206 358 277 538 33 83 37 103 37 180 0 82 -10 199 -18 212 -2 3 -6
19 -8 36 -18 98 -105 305 -168 397 -56 83 -144 156 -203 170 -16 4 -37 9 -45
10 -8 2 -29 0 -47 -5z m467 -846 c-1 -21 -33 -144 -50 -190 -34 -93 -159 -318
-160 -289 0 4 27 62 60 127 65 128 88 187 115 292 10 37 22 67 26 67 5 0 9 -3
9 -7z m-297 -395 c-30 -103 -73 -197 -73 -161 0 34 69 213 82 213 4 0 0 -24
-9 -52z"/>
<path d="M1590 5173 c-44 -53 -145 -264 -169 -353 -15 -59 -19 -98 -16 -187 2
-62 6 -121 9 -131 3 -9 8 -31 11 -48 14 -84 100 -300 140 -349 15 -19 15 -17
10 29 -3 27 -8 53 -11 58 -16 26 -22 253 -9 348 10 69 10 63 -5 135 -24 118
-24 122 10 197 27 57 34 89 40 167 4 53 14 113 23 134 9 20 12 37 7 37 -5 0
-23 -17 -40 -37z"/>
<path d="M6053 5133 c-88 -31 -133 -87 -232 -286 -164 -332 -261 -489 -380
-617 -39 -41 -71 -78 -71 -82 -1 -42 187 119 273 232 23 30 82 96 131 147 135
139 159 182 176 304 16 121 58 194 153 264 66 49 39 70 -50 38z"/>
<path d="M897 4770 c-41 -32 -56 -72 -52 -142 1 -35 8 -76 14 -93 7 -16 14
-56 17 -90 10 -127 57 -205 153 -254 23 -12 58 -40 79 -63 81 -92 136 -137
191 -159 31 -12 75 -30 98 -40 60 -27 77 -26 62 4 -11 20 -65 95 -89 124 -5 7
-10 14 -10 17 0 2 -23 42 -51 88 -56 91 -104 141 -188 195 -69 44 -52 55 26
16 80 -40 151 -117 259 -279 104 -159 159 -223 175 -207 14 14 -7 63 -63 150
-24 38 -57 91 -73 118 -98 171 -247 325 -345 360 -81 29 -153 94 -170 154 -13
48 -13 61 4 94 18 34 2 37 -37 7z"/>
<path d="M5750 4229 c-85 -52 -45 -179 56 -179 33 0 81 25 94 49 31 60 -14
140 -82 145 -23 2 -49 -4 -68 -15z"/>
<path d="M5555 4134 c-33 -13 -89 -34 -125 -45 -128 -43 -284 -133 -372 -218
-100 -94 8 -60 246 78 109 63 168 91 270 125 87 29 106 40 106 65 0 25 -57 23
-125 -5z"/>
<path d="M1300 3828 c-101 -15 -215 -87 -255 -162 -12 -23 -29 -37 -46 -41
-111 -25 -106 -195 5 -195 83 0 136 121 72 162 -19 12 55 79 120 109 87 40
103 43 257 43 l138 1 -3 34 c-2 29 -8 36 -33 44 -41 12 -188 15 -255 5z"/>
<path d="M5170 3793 c-70 -12 -215 -55 -252 -74 -24 -12 -99 -78 -168 -148
-132 -132 -186 -181 -201 -181 -5 0 -9 -4 -9 -9 0 -8 83 -20 149 -21 32 0 138
39 152 56 6 8 17 14 25 14 7 0 41 13 76 29 73 33 223 80 354 110 124 29 274
35 274 11 0 -10 -34 -17 -115 -25 -76 -8 -120 -19 -270 -67 -148 -47 -246 -88
-239 -99 3 -5 26 -6 52 -3 107 11 153 20 221 45 234 85 323 94 509 55 63 -13
156 -114 167 -181 21 -126 69 -129 74 -5 4 107 -51 227 -143 312 -106 99 -361
184 -556 185 -41 1 -86 -1 -100 -4z m10 -130 c0 -5 -31 -21 -68 -36 -37 -16
-114 -56 -172 -90 -162 -94 -210 -118 -204 -103 9 24 128 113 209 157 99 54
235 95 235 72z"/>
<path d="M1551 3529 c-14 -5 -50 -36 -81 -69 -39 -39 -78 -68 -121 -88 -98
-44 -167 -125 -211 -245 -20 -56 -53 -98 -115 -146 -72 -56 -94 -150 -88 -376
4 -161 15 -241 28 -200 6 23 29 133 27 137 -2 8 62 182 88 240 57 125 260 404
308 422 24 9 16 -21 -16 -56 -58 -63 -198 -275 -249 -376 -26 -52 -78 -186
-86 -222 -2 -8 -11 -45 -19 -81 -24 -103 -27 -130 -31 -354 -3 -205 -4 -212
-35 -305 -18 -54 -34 -126 -37 -167 l-6 -72 67 -69 c84 -87 80 -93 -75 -97
-61 -2 -112 -5 -114 -7 -2 -2 -5 -18 -8 -35 l-5 -33 86 0 c100 0 341 29 360
43 20 16 14 25 -45 68 -98 70 -142 119 -158 171 -8 26 -12 58 -10 70 3 13 7
37 11 53 11 55 105 207 158 258 91 87 146 114 266 132 39 5 180 -46 180 -67 0
-4 6 -8 13 -8 14 0 17 66 4 86 -4 7 -26 21 -49 32 -149 69 -320 5 -455 -170
-24 -32 -49 -58 -54 -58 -20 0 66 143 116 193 56 56 73 67 152 91 85 26 210
21 260 -10 18 -11 23 -11 33 1 16 20 5 62 -21 75 -31 17 -138 26 -199 18 -124
-19 -280 -134 -331 -247 -41 -89 -52 -68 -53 104 -1 102 4 145 25 231 16 66
71 195 100 236 22 31 144 172 197 228 13 14 49 62 79 108 77 116 90 95 21 -34
-9 -17 -45 -64 -78 -105 -34 -41 -77 -92 -95 -114 -18 -22 -45 -53 -59 -70
-60 -68 -156 -301 -156 -376 0 -36 13 -14 70 116 64 148 135 255 237 360 93
95 130 147 165 235 35 86 44 156 41 326 -1 98 2 155 12 188 13 42 13 46 -3 45
-9 0 -28 -5 -41 -10z"/>
<path d="M5447 3352 c-46 -28 -55 -81 -21 -121 54 -65 141 -62 169 7 21 48 19
66 -11 101 -21 26 -33 31 -67 31 -23 0 -54 -8 -70 -18z"/>
<path d="M4398 3335 c-2 -1 -35 -5 -75 -9 -99 -8 -143 -19 -253 -64 -60 -24
-96 -45 -98 -55 -5 -26 46 -22 178 14 161 44 352 46 465 6 129 -46 230 -111
288 -185 47 -60 107 -169 107 -194 0 -8 4 -18 9 -23 16 -18 71 -178 100 -289
32 -119 45 -197 55 -311 4 -54 -9 -104 -24 -89 -5 5 -11 32 -14 59 -9 87 -66
326 -108 450 -49 148 -93 245 -149 330 -39 59 -102 115 -129 115 -17 0 -85
-73 -113 -120 -47 -82 -75 -257 -53 -327 6 -19 10 -21 32 -11 13 6 27 9 30 5
4 -3 7 -41 8 -84 1 -66 6 -88 34 -145 41 -83 56 -97 80 -75 21 19 31 13 56
-36 21 -41 76 -94 149 -144 83 -58 180 -208 207 -320 6 -29 16 -53 20 -53 33
0 126 201 146 315 33 192 47 271 59 325 9 41 13 103 11 168 -4 112 -2 115 58
92 15 -5 26 -6 26 -1 0 24 -62 186 -100 263 -81 163 -225 276 -357 282 -64 3
-108 -8 -98 -24 10 -16 2 -13 -92 34 -73 37 -197 81 -238 84 -5 1 -37 4 -70 7
-73 8 -144 13 -147 10z m888 -822 c11 -26 16 -72 17 -148 1 -107 -1 -127 -23
-230 -20 -97 -22 -104 -36 -116 -11 -9 -14 -7 -15 12 -2 29 1 56 7 89 3 14 8
106 10 205 5 173 9 225 19 225 3 0 12 -17 21 -37z"/>
<path d="M4313 3208 c-57 -15 -78 -70 -48 -127 16 -32 55 -48 98 -43 29 4 50
36 61 95 9 52 -50 92 -111 75z"/>
<path d="M2772 3057 c-26 -13 -47 -52 -147 -261 l-66 -139 2 -153 c1 -85 3
-154 5 -154 1 0 19 34 40 75 41 82 117 167 185 207 223 131 506 27 603 -221
23 -59 23 -163 1 -235 -32 -102 -128 -156 -301 -170 -138 -12 -211 -30 -309
-78 -54 -26 -165 -116 -165 -133 0 -3 5 -26 11 -50 l11 -45 47 41 c73 65 193
119 294 134 20 3 54 8 75 11 20 3 48 7 62 9 197 23 279 62 340 159 44 72 56
175 35 291 -12 69 -82 202 -133 253 -167 172 -313 220 -527 176 -50 -10 -81
-12 -87 -6 -11 11 32 118 86 217 18 33 31 66 29 73 -6 15 -61 15 -91 -1z"/>
<path d="M2955 3063 c-11 -2 -30 -18 -42 -36 -32 -46 -113 -210 -107 -216 14
-15 71 34 94 81 14 28 44 76 67 107 29 38 38 58 30 63 -7 4 -14 7 -17 6 -3 0
-14 -3 -25 -5z"/>
<path d="M5664 3049 c-11 -4 -32 -21 -48 -38 -50 -53 -32 -130 38 -162 45 -20
87 -11 111 24 23 33 20 132 -5 157 -11 11 -23 20 -27 21 -5 0 -18 2 -29 3 -12
1 -30 -1 -40 -5z"/>
<path d="M1455 2566 c-150 -43 -268 -159 -328 -325 -15 -41 -26 -76 -24 -77 2
-2 33 26 70 62 108 105 196 135 379 129 59 -2 88 0 91 8 8 23 0 188 -10 198
-17 17 -124 20 -178 5z"/>
<path d="M5643 2563 c-23 -9 -14 -27 35 -69 66 -58 96 -147 96 -291 0 -97 -2
-104 -26 -130 -51 -55 -69 -108 -67 -191 1 -43 8 -102 15 -132 15 -64 18 -188
4 -245 -5 -22 -12 -55 -15 -74 -3 -19 -17 -59 -32 -90 -60 -131 -53 -143 31
-58 103 103 190 247 220 363 25 98 27 122 33 309 3 99 9 184 13 188 13 15 33
-117 36 -238 2 -106 -2 -134 -30 -245 -45 -176 -93 -262 -249 -442 -47 -54
-53 -78 -22 -78 8 0 23 7 32 15 17 13 118 94 172 135 150 117 276 307 296 445
20 146 12 232 -36 390 -47 155 -146 300 -253 374 -71 49 -206 83 -253 64z
m502 -760 c-8 -82 -34 -159 -77 -230 -34 -55 -94 -121 -103 -112 -3 3 20 46
50 96 47 78 105 230 105 277 0 11 19 36 28 36 2 0 1 -30 -3 -67z m-332 -195
c5 -17 -20 -105 -41 -140 -25 -42 -45 -45 -37 -5 4 17 13 46 20 62 7 17 18 45
25 63 13 33 25 41 33 20z"/>
<path d="M2897 2430 c-48 -16 -100 -38 -115 -47 -70 -45 -133 -98 -167 -141
-35 -45 -36 -50 -34 -117 4 -97 7 -101 41 -50 82 124 289 251 426 262 63 5
142 -9 142 -24 0 -2 -13 -18 -30 -35 -38 -37 -40 -79 -6 -113 62 -62 177 30
162 128 -17 105 -96 158 -241 164 -80 3 -100 0 -178 -27z"/>
<path d="M3717 1923 c-21 -49 -41 -60 -129 -74 -84 -13 -158 -42 -158 -62 0
-7 6 -14 13 -14 23 -1 140 -34 231 -67 50 -18 97 -31 104 -28 7 2 20 18 28 34
30 57 0 213 -44 237 -28 15 -26 16 -45 -26z"/>
<path d="M1352 1843 c-12 -2 -29 -15 -38 -28 -13 -21 -14 -28 -2 -52 20 -43
59 -57 103 -39 30 13 35 20 35 49 0 25 -7 38 -30 55 -16 12 -33 21 -37 21 -4
-1 -18 -4 -31 -6z"/>
<path d="M3115 1755 c-129 -19 -223 -58 -337 -138 -66 -45 -72 -66 -29 -96
l29 -21 49 25 c81 42 140 38 195 -14 40 -37 42 -41 43 -101 1 -73 6 -77 109
-87 l58 -6 -7 34 c-12 57 -43 111 -91 164 -49 53 -46 69 8 34 82 -54 141 -186
153 -342 13 -175 26 -214 82 -244 41 -22 57 -61 56 -135 0 -32 4 -58 9 -58 15
0 92 54 121 85 46 50 85 117 98 168 38 155 -60 348 -249 488 -82 61 -74 77 15
30 77 -41 154 -118 220 -218 69 -105 136 -147 207 -129 32 8 65 43 61 64 -2 9
-4 24 -4 33 -1 8 -17 34 -36 56 -19 23 -35 44 -35 47 0 15 26 3 65 -28 32 -27
45 -47 55 -83 35 -134 58 -165 98 -134 53 40 46 116 -21 218 -74 113 -183 213
-291 267 -82 40 -190 82 -239 92 -10 2 -26 5 -35 8 -16 4 -63 13 -122 22 -71
10 -164 10 -235 -1z"/>
<path d="M1255 1646 c-34 -15 -62 -45 -59 -63 1 -7 2 -17 3 -21 3 -21 64 -102
77 -102 19 0 62 77 69 126 11 65 -24 89 -90 60z"/>
<path d="M6151 1197 c-96 -49 -78 -177 25 -177 81 0 114 32 114 110 0 30 -6
43 -26 59 -30 24 -77 27 -113 8z"/>
<path d="M866 1159 c-58 -46 -8 -122 58 -87 28 14 36 28 36 59 0 50 -47 65
-94 28z"/>
<path d="M4397 984 c-4 -4 -7 -26 -7 -49 0 -34 -4 -44 -22 -52 -27 -12 -73 -2
-137 30 -80 40 -209 24 -286 -34 -83 -62 -247 -138 -358 -166 -222 -54 -457
-30 -651 67 -56 28 -121 69 -145 90 -25 22 -47 41 -50 42 -8 2 -141 4 -141 3
0 -6 69 -72 113 -108 85 -69 283 -156 392 -172 17 -3 57 -9 90 -14 103 -15
390 -7 470 13 133 35 275 113 395 219 23 20 49 37 57 37 8 0 49 -8 91 -19 43
-10 104 -24 137 -31 33 -7 74 -16 90 -19 57 -14 90 -8 93 16 2 11 -4 27 -13
35 -39 32 -72 65 -90 91 -11 15 -24 25 -28 21z"/>
<path d="M3004 969 c-3 -5 7 -15 20 -24 19 -12 36 -15 66 -10 22 4 40 10 40
14 0 10 -120 29 -126 20z"/>
</g>
</svg>
